<?xml version="1.0" encoding="utf-8"?>
<!-- Generator: Adobe Illustrator 22.0.1, SVG Export Plug-In . SVG Version: 6.00 Build 0)  -->
<svg version="1.1" id="Layer_1" xmlns="http://www.w3.org/2000/svg" xmlns:xlink="http://www.w3.org/1999/xlink" x="0px" y="0px"
	 viewBox="0 0 502.4 607.3" style="enable-background:new 0 0 502.4 607.3;" xml:space="preserve">
<style type="text/css">
	.st0{fill:#FFFFFF;}
	.st1{fill:#F48634;}
	.st2{fill:#D60909;}
	.st3{fill:#D84B05;}
	.st4{fill:#FCA903;}
</style>
<g>
	<g>
		<path class="st0" d="M328.9,173.9c0.5,1.2,1.6,2,2.8,2.1c5.2,3.9,10.4,7.8,15.5,11.9c0.2,0.2,0.3,0.3,0.5,0.5
			c0.1,0,0.2,0.1,0.3,0.1c9.4,7.3,18.7,14.9,27.2,23c8.5,8.1,16.3,16.8,22.7,26.4c-0.1,0.1-0.2,0.1-0.2,0.2c0.3,0.2,0.5,0.4,0.7,0.6
			c3.4,5.1,6.4,10.5,8.9,16.2c0,0,11.9-42.2-20.5-85.3c0,0,0,0,0-0.1c0,0,0,0,0,0c-6.4-8.5-14.4-17-24.7-25.2
			c-0.4-1-1.4-1.7-2.4-1.9c-5.2-4-10.9-8-17.2-11.8c-78.7-48.1-51.3-103.8-43-111.5c-1.3,0.8-50.6,33.1-28.6,91.9
			C280.2,135.7,303.6,154.6,328.9,173.9z"/>
		<path class="st0" d="M348.5,207.6c-47.3-36.2-73.3-61.5-86.8-84.7c-13.4-23-14.7-44.5-4.6-71.7l1.1-3l-3,1.1
			c-0.9,0.3-21.7,7.9-39.4,29.3c-28.8,34.7-26.7,78.4-19.4,110c-7.7-3-31.8-15.9-41.6-61.3l-0.6-2.9l-2,2.2
			c-0.4,0.5-43.5,49-16.8,98.1c11.4,21,14,39.8,7.1,51.6c-3.4,5.9-9.1,9.4-15.5,9.5c-8.3,0.1-14.2-2.6-17.7-8
			c-10.1-15.8,2.4-51,4.7-55.9l2.3-3l-3.8,0.7c-0.4,0.1-0.7,0.1-1,0.6c-1.4,1.8-27.8,37.3-42.3,88.1c-13.7,48-19.2,119.9,32,189.8
			c33.9,51.5,90.8,82.2,152.4,82.2c100.5,0,182.3-81.8,182.3-182.3c0-1.6,0-3.1-0.1-4.6C436.7,349.6,426.9,267.5,348.5,207.6z
			 M308.1,199.2c0-0.2-0.1-0.3-0.1-0.5c0.8,0.5,1.6,1,2.4,1.5c-0.7,0.1-1.5,0.2-2.3,0.2C308.2,200.1,308.2,199.7,308.1,199.2z"/>
	</g>
	<g>
		<g>
			<g>
				<g>
					<g>
						<circle class="st1" cx="166.8" cy="552.2" r="3.3"/>
					</g>
				</g>
				<g>
					<g>
						<circle class="st1" cx="153.2" cy="538.7" r="3.3"/>
					</g>
				</g>
				<g>
					<g>
						<circle class="st1" cx="139.7" cy="525.1" r="3.3"/>
					</g>
				</g>
				<g>
					<g>
						<circle class="st1" cx="140" cy="535.7" r="3.3"/>
					</g>
				</g>
				<g>
					<g>
						<circle class="st1" cx="126.1" cy="294.6" r="3.3"/>
					</g>
				</g>
				<g>
					<g>
						<circle class="st1" cx="126.1" cy="511.5" r="3.3"/>
					</g>
				</g>
				<g>
					<g>
						<circle class="st1" cx="128.2" cy="524.3" r="3.3"/>
					</g>
				</g>
				<g>
					<g>
						<circle class="st1" cx="112.6" cy="294.6" r="3.3"/>
					</g>
				</g>
				<g>
					<g>
						<circle class="st1" cx="112.6" cy="308.2" r="3.3"/>
					</g>
				</g>
				<g>
					<g>
						<circle class="st1" cx="112.6" cy="321.7" r="3.3"/>
					</g>
				</g>
				<g>
					<g>
						<circle class="st1" cx="112.6" cy="335.3" r="3.3"/>
					</g>
				</g>
				<g>
					<g>
						<circle class="st1" cx="112.6" cy="484.4" r="3.3"/>
					</g>
				</g>
				<g>
					<g>
						<circle class="st1" cx="112.6" cy="498" r="3.3"/>
					</g>
				</g>
				<g>
					<g>
						<circle class="st1" cx="115.2" cy="509.7" r="3.3"/>
					</g>
				</g>
				<g>
					<g>
						<circle class="st1" cx="102" cy="241.2" r="3.3"/>
					</g>
				</g>
				<g>
					<g>
						<circle class="st1" cx="99" cy="254" r="3.3"/>
					</g>
				</g>
				<g>
					<g>
						<circle class="st1" cx="99" cy="267.5" r="3.3"/>
					</g>
				</g>
				<g>
					<g>
						<circle class="st1" cx="99" cy="281.1" r="3.3"/>
					</g>
				</g>
				<g>
					<g>
						<circle class="st1" cx="99" cy="294.6" r="3.3"/>
					</g>
				</g>
				<g>
					<g>
						<circle class="st1" cx="99" cy="308.2" r="3.3"/>
					</g>
				</g>
				<g>
					<g>
						<circle class="st1" cx="99" cy="321.7" r="3.3"/>
					</g>
				</g>
				<g>
					<g>
						<circle class="st1" cx="99" cy="335.3" r="3.3"/>
					</g>
				</g>
				<g>
					<g>
						<circle class="st1" cx="99" cy="348.9" r="3.3"/>
					</g>
				</g>
				<g>
					<g>
						<circle class="st1" cx="99" cy="362.4" r="3.3"/>
					</g>
				</g>
				<g>
					<g>
						<circle class="st1" cx="99" cy="376" r="3.3"/>
					</g>
				</g>
				<g>
					<g>
						<circle class="st1" cx="99" cy="389.5" r="3.3"/>
					</g>
				</g>
				<g>
					<g>
						<circle class="st1" cx="99" cy="403.1" r="3.3"/>
					</g>
				</g>
				<g>
					<g>
						<circle class="st1" cx="99" cy="416.6" r="3.3"/>
					</g>
				</g>
				<g>
					<g>
						<circle class="st1" cx="99" cy="430.2" r="3.3"/>
					</g>
				</g>
				<g>
					<g>
						<circle class="st1" cx="99" cy="443.8" r="3.3"/>
					</g>
				</g>
				<g>
					<g>
						<circle class="st1" cx="99" cy="457.3" r="3.3"/>
					</g>
				</g>
				<g>
					<g>
						<circle class="st1" cx="99" cy="470.9" r="3.3"/>
					</g>
				</g>
				<g>
					<g>
						<circle class="st1" cx="99" cy="484.4" r="3.3"/>
					</g>
				</g>
				<g>
					<g>
						<circle class="st1" cx="88.4" cy="269.5" r="3.3"/>
					</g>
				</g>
				<g>
					<g>
						<circle class="st1" cx="85.4" cy="281.1" r="3.3"/>
					</g>
				</g>
				<g>
					<g>
						<circle class="st1" cx="85.4" cy="294.6" r="3.3"/>
					</g>
				</g>
				<g>
					<g>
						<circle class="st1" cx="85.4" cy="308.2" r="3.3"/>
					</g>
				</g>
				<g>
					<g>
						<circle class="st1" cx="85.4" cy="321.7" r="3.3"/>
					</g>
				</g>
				<g>
					<g>
						<circle class="st1" cx="85.4" cy="335.3" r="3.3"/>
					</g>
				</g>
				<g>
					<g>
						<circle class="st1" cx="85.4" cy="348.9" r="3.3"/>
					</g>
				</g>
				<g>
					<g>
						<circle class="st1" cx="85.4" cy="362.4" r="3.3"/>
					</g>
				</g>
				<g>
					<g>
						<circle class="st1" cx="85.4" cy="376" r="3.3"/>
					</g>
				</g>
				<g>
					<g>
						<circle class="st1" cx="85.4" cy="389.5" r="3.3"/>
					</g>
				</g>
				<g>
					<g>
						<circle class="st1" cx="85.4" cy="403.1" r="3.3"/>
					</g>
				</g>
				<g>
					<g>
						<circle class="st1" cx="85.4" cy="416.6" r="3.3"/>
					</g>
				</g>
				<g>
					<g>
						<circle class="st1" cx="85.4" cy="430.2" r="3.3"/>
					</g>
				</g>
				<g>
					<g>
						<circle class="st1" cx="85.4" cy="443.8" r="3.3"/>
					</g>
				</g>
				<g>
					<g>
						<circle class="st1" cx="85.4" cy="457.3" r="3.3"/>
					</g>
				</g>
				<g>
					<g>
						<circle class="st1" cx="89.2" cy="469.7" r="3.3"/>
					</g>
				</g>
				<g>
					<g>
						<circle class="st1" cx="74.9" cy="306.4" r="3.3"/>
					</g>
				</g>
				<g>
					<g>
						<circle class="st1" cx="71.9" cy="321.7" r="3.3"/>
					</g>
				</g>
				<g>
					<g>
						<circle class="st1" cx="71.9" cy="335.3" r="3.3"/>
					</g>
				</g>
				<g>
					<g>
						<circle class="st1" cx="71.9" cy="348.9" r="3.3"/>
					</g>
				</g>
				<g>
					<g>
						<circle class="st1" cx="71.9" cy="362.4" r="3.3"/>
					</g>
				</g>
				<g>
					<g>
						<circle class="st1" cx="71.9" cy="376" r="3.3"/>
					</g>
				</g>
				<g>
					<g>
						<circle class="st1" cx="71.9" cy="389.5" r="3.3"/>
					</g>
				</g>
				<g>
					<g>
						<circle class="st1" cx="71.9" cy="403.1" r="3.3"/>
					</g>
				</g>
				<g>
					<g>
						<circle class="st1" cx="71.9" cy="416.6" r="3.3"/>
					</g>
				</g>
				<g>
					<g>
						<circle class="st1" cx="71.9" cy="430.2" r="3.3"/>
					</g>
				</g>
			</g>
			<path class="st1" d="M192.4,568.8c1.2,0.1,2.4,0.2,3.7,0.3l-1.3-0.9c-50.8-34.7-81.2-77.4-90.4-126.8
				c-15.4-82.6,34.5-156.6,35.1-157.3l1.6-2.3c-2.5,2.4-5.4,4.5-8.5,5.8c-0.1,0.1-0.1,0.2-0.2,0.3c0.5-0.2,1-0.4,1.5-0.6
				C123,305.3,88,370.4,101.4,442c8.5,45.6,34.6,85.4,77.8,118.7c2.9,1.4,5.7,3.1,8.3,4.8C189.1,566.5,190.8,567.7,192.4,568.8z"/>
		</g>
		<g>
			<path class="st2" d="M253.4,580.1c-61.5,0-118.5-30.7-152.4-82.2c-51.2-69.9-45.7-141.8-32-189.8c14.5-50.8,40.9-86.3,42.3-88.1
				c0.3-0.5,0.6-0.6,1-0.6l3.8-0.7l-2.3,3c-2.3,4.9-14.8,40.1-4.7,55.9c3.5,5.5,9.4,8.2,17.7,8c6.4-0.1,12.1-3.5,15.6-9.5
				c6.9-11.8,4.3-30.6-7.1-51.6c-26.8-49.2,16.3-97.7,16.8-98.1l2-2.2l0.6,2.9c9.8,45.4,33.9,58.3,41.6,61.3
				c-7.3-31.5-9.5-75.3,19.4-110c17.8-21.3,38.6-29,39.4-29.3l3-1.1l-1.1,3c-10.1,27.3-8.7,48.7,4.6,71.7
				c13.5,23.3,39.5,48.6,86.8,84.7c78.4,59.9,88.3,142,87.1,185.7c0,1.5,0.1,3,0.1,4.6C435.7,498.3,353.9,580.1,253.4,580.1z
				 M107.4,231c-8.9,13.8-25.2,42-35.5,78c-8.6,30.1-11.3,59.7-8.1,88c4,35.3,17.4,68.7,39.7,99.1c33.4,50.7,89.4,80.9,149.9,80.9
				c98.8,0,179.3-80.4,179.3-179.3c0-1.5,0-3.1-0.1-4.6c1.1-43.1-8.6-124.1-86-183.3v0c-88.8-67.8-111.3-105-93.5-156.6
				c-6.4,2.9-21.9,11.1-35.1,27.2c-15.9,19.1-31.9,53.7-18.1,109.8l0.6,2.4l-2.4-0.5c-1.4-0.3-33-8.1-45.6-61.4
				c-8,10-36.9,51.1-14.5,92.4c11.9,21.9,14.5,41.8,7,54.5c-4,6.8-10.6,10.8-18.1,10.9c-14.5,0.2-23-7.7-24.5-22.9
				c-1-10.2,1.4-22.1,3.6-30.2C106.5,233.9,106.9,232.4,107.4,231z"/>
		</g>
		<circle class="st1" cx="323.4" cy="347.4" r="52.7"/>
		<circle class="st1" cx="198.4" cy="351.9" r="52.7"/>
		<path class="st3" d="M172.3,441.6c-7.5,0.2-13.1,7-11.9,14.4c8.6,53.4,55.8,93.4,111.4,91.6s100-44.8,105.2-98.6
			c0.7-7.5-5.3-13.9-12.8-13.6L172.3,441.6z"/>
		<circle class="st0" cx="201.4" cy="378" r="21.8"/>
		<circle class="st0" cx="327" cy="372.5" r="21.8"/>
		<path class="st0" d="M211.6,481.7l27.3-1.1c3.4-0.1,6.1-3,5.9-6.4l-1.1-26.9l-39.6,1.6l1.1,26.9
			C205.3,479.2,208.2,481.9,211.6,481.7z"/>
		<path class="st0" d="M259.5,480.6l27.3-1.1c3.4-0.1,6.1-3,5.9-6.4l-1.1-26.9l-39.6,1.6l1.1,26.9
			C253.2,478.1,256.1,480.7,259.5,480.6z"/>
		<path class="st0" d="M305.9,479.4l27.3-1.1c3.4-0.1,6.1-3,5.9-6.4l-1.1-26.9l-39.6,1.6l1.1,26.9
			C299.6,476.9,302.5,479.5,305.9,479.4z"/>
		<g>
			<g>
				<g>
					<g>
						<g>
							<circle class="st4" cx="399.7" cy="199.9" r="3.3"/>
						</g>
					</g>
					<g>
						<g>
							<circle class="st4" cx="399.7" cy="213.4" r="3.3"/>
						</g>
					</g>
					<g>
						<g>
							<circle class="st4" cx="399.7" cy="227" r="3.3"/>
						</g>
					</g>
					<g>
						<g>
							<circle class="st4" cx="404" cy="237.5" r="3.3"/>
						</g>
					</g>
					<g>
						<g>
							<circle class="st4" cx="384.4" cy="173.1" r="3.3"/>
						</g>
					</g>
					<g>
						<g>
							<circle class="st4" cx="386.2" cy="186.3" r="3.3"/>
						</g>
					</g>
					<g>
						<g>
							<circle class="st4" cx="386.2" cy="199.9" r="3.3"/>
						</g>
					</g>
					<g>
						<g>
							<circle class="st4" cx="386.2" cy="213.4" r="3.3"/>
						</g>
					</g>
					<g>
						<g>
							<circle class="st4" cx="372.6" cy="159.2" r="3.3"/>
						</g>
					</g>
					<g>
						<g>
							<circle class="st4" cx="372.6" cy="172.8" r="3.3"/>
						</g>
					</g>
					<g>
						<g>
							<circle class="st4" cx="372.6" cy="186.3" r="3.3"/>
						</g>
					</g>
					<g>
						<g>
							<circle class="st4" cx="372.6" cy="199.9" r="3.3"/>
						</g>
					</g>
					<g>
						<g>
							<circle class="st4" cx="359.1" cy="145.6" r="3.3"/>
						</g>
					</g>
					<g>
						<g>
							<circle class="st4" cx="359.1" cy="159.2" r="3.3"/>
						</g>
					</g>
					<g>
						<g>
							<circle class="st4" cx="359.1" cy="172.8" r="3.3"/>
						</g>
					</g>
					<g>
						<g>
							<circle class="st4" cx="359.1" cy="186.3" r="3.3"/>
						</g>
					</g>
					<g>
						<g>
							<circle class="st4" cx="345.5" cy="145.6" r="3.3"/>
						</g>
					</g>
					<g>
						<g>
							<circle class="st4" cx="345.5" cy="159.2" r="3.3"/>
						</g>
					</g>
					<g>
						<g>
							<circle class="st4" cx="345.5" cy="172.8" r="3.3"/>
						</g>
					</g>
					<g>
						<g>
							<circle class="st4" cx="348.6" cy="184" r="3.3"/>
						</g>
					</g>
					<g>
						<g>
							<circle class="st4" cx="332" cy="132.1" r="3.3"/>
						</g>
					</g>
					<g>
						<g>
							<circle class="st4" cx="332" cy="145.6" r="3.3"/>
						</g>
					</g>
					<g>
						<g>
							<circle class="st4" cx="332" cy="159.2" r="3.3"/>
						</g>
					</g>
					<g>
						<g>
							<circle class="st4" cx="335.1" cy="171.9" r="3.3"/>
						</g>
					</g>
					<g>
						<g>
							<circle class="st4" cx="318.4" cy="118.5" r="3.3"/>
						</g>
					</g>
					<g>
						<g>
							<circle class="st4" cx="318.4" cy="132.1" r="3.3"/>
						</g>
					</g>
					<g>
						<g>
							<circle class="st4" cx="318.4" cy="145.6" r="3.3"/>
						</g>
					</g>
					<g>
						<g>
							<circle class="st4" cx="318.4" cy="159.2" r="3.3"/>
						</g>
					</g>
					<g>
						<g>
							<circle class="st4" cx="304.9" cy="105" r="3.3"/>
						</g>
					</g>
					<g>
						<g>
							<circle class="st4" cx="304.9" cy="118.5" r="3.3"/>
						</g>
					</g>
					<g>
						<g>
							<circle class="st4" cx="304.9" cy="132.1" r="3.3"/>
						</g>
					</g>
					<g>
						<g>
							<circle class="st4" cx="304.9" cy="145.6" r="3.3"/>
						</g>
					</g>
					<g>
						<g>
							<circle class="st4" cx="288.8" cy="77.4" r="3.3"/>
						</g>
					</g>
					<g>
						<g>
							<circle class="st4" cx="291.3" cy="91.4" r="3.3"/>
						</g>
					</g>
					<g>
						<g>
							<circle class="st4" cx="291.3" cy="105" r="3.3"/>
						</g>
					</g>
					<g>
						<g>
							<circle class="st4" cx="291.3" cy="118.5" r="3.3"/>
						</g>
					</g>
					<g>
						<g>
							<circle class="st4" cx="291.3" cy="132.1" r="3.3"/>
						</g>
					</g>
					<g>
						<g>
							<circle class="st4" cx="277.7" cy="50.7" r="3.3"/>
						</g>
					</g>
					<g>
						<g>
							<circle class="st4" cx="277.7" cy="64.3" r="3.3"/>
						</g>
					</g>
					<g>
						<g>
							<circle class="st4" cx="277.7" cy="77.9" r="3.3"/>
						</g>
					</g>
					<g>
						<g>
							<circle class="st4" cx="277.7" cy="91.4" r="3.3"/>
						</g>
					</g>
					<g>
						<g>
							<circle class="st4" cx="277.7" cy="105" r="3.3"/>
						</g>
					</g>
					<g>
						<g>
							<circle class="st4" cx="280.5" cy="118.5" r="3.3"/>
						</g>
					</g>
				</g>
			</g>
			<g>
				<path class="st4" d="M288.6,32.6c-2.6,7.4-4.3,16.8-3.2,27.5c3.3,34.3,32,58.7,55.5,73c42.9,26.2,57.9,57.6,62.9,79.4
					c3.1,13.6,2.9,25.2,2.1,32.6c-15.6-28.5-43-49.3-69.5-69.4c-27.2-20.6-53-40.1-62.6-65.9c-8.9-23.7-7-45.7,5.5-65.4
					C282.3,39.9,285.6,35.9,288.6,32.6 M299.6,19.1c0,0-50.9,32.4-28.6,91.9c20.3,54.2,108.5,80.6,136.3,143.9
					c0,0,20.3-72.3-64.8-124.3C263.7,82.4,291.3,26.6,299.6,19.1L299.6,19.1z"/>
			</g>
		</g>
		<g>
			<g>
				<g>
					<g>
						<g>
							<circle class="st2" cx="304.9" cy="199.9" r="3.3"/>
						</g>
					</g>
					<g>
						<g>
							<circle class="st2" cx="288.4" cy="185.5" r="3.3"/>
						</g>
					</g>
					<g>
						<g>
							<circle class="st2" cx="291.3" cy="199.9" r="3.3"/>
						</g>
					</g>
					<g>
						<g>
							<circle class="st2" cx="274.2" cy="173.3" r="3.3"/>
						</g>
					</g>
					<g>
						<g>
							<circle class="st2" cx="277.7" cy="186.3" r="3.3"/>
						</g>
					</g>
					<g>
						<g>
							<circle class="st2" cx="277.7" cy="199.9" r="3.3"/>
						</g>
					</g>
					<g>
						<g>
							<circle class="st2" cx="260.9" cy="159.5" r="3.3"/>
						</g>
					</g>
					<g>
						<g>
							<circle class="st2" cx="264.2" cy="172.8" r="3.3"/>
						</g>
					</g>
					<g>
						<g>
							<circle class="st2" cx="264.2" cy="186.3" r="3.3"/>
						</g>
					</g>
					<g>
						<g>
							<circle class="st2" cx="263.1" cy="197.2" r="3.3"/>
						</g>
					</g>
					<g>
						<g>
							<circle class="st2" cx="250.6" cy="145.6" r="3.3"/>
						</g>
					</g>
					<g>
						<g>
							<circle class="st2" cx="250.6" cy="159.2" r="3.3"/>
						</g>
					</g>
					<g>
						<g>
							<circle class="st2" cx="250.6" cy="172.8" r="3.3"/>
						</g>
					</g>
					<g>
						<g>
							<circle class="st2" cx="250.6" cy="186.3" r="3.3"/>
						</g>
					</g>
					<g>
						<g>
							<circle class="st2" cx="237.1" cy="118.5" r="3.3"/>
						</g>
					</g>
					<g>
						<g>
							<circle class="st2" cx="237.1" cy="132.1" r="3.3"/>
						</g>
					</g>
					<g>
						<g>
							<circle class="st2" cx="237.1" cy="145.6" r="3.3"/>
						</g>
					</g>
					<g>
						<g>
							<circle class="st2" cx="237.1" cy="159.2" r="3.3"/>
						</g>
					</g>
					<g>
						<g>
							<circle class="st2" cx="237.1" cy="172.8" r="3.3"/>
						</g>
					</g>
					<g>
						<g>
							<circle class="st2" cx="237.1" cy="186.3" r="3.3"/>
						</g>
					</g>
					<g>
						<g>
							<circle class="st2" cx="227" cy="117" r="3.3"/>
						</g>
					</g>
					<g>
						<g>
							<circle class="st2" cx="223.5" cy="132.1" r="3.3"/>
						</g>
					</g>
					<g>
						<g>
							<circle class="st2" cx="223.5" cy="145.6" r="3.3"/>
						</g>
					</g>
					<g>
						<g>
							<circle class="st2" cx="223.5" cy="159.2" r="3.3"/>
						</g>
					</g>
					<g>
						<g>
							<circle class="st2" cx="223.5" cy="172.8" r="3.3"/>
						</g>
					</g>
				</g>
			</g>
			<g>
				<path class="st2" d="M232.7,98.9c1.1,7,3.6,16.7,8.8,28c8.9,19.5,28.1,47.7,68.9,73.4c-5.2,0.6-12.4,1.2-20.6,1.2
					c-22.5,0-51.9-4.3-64.6-25C214.6,159.2,217.1,133.2,232.7,98.9 M234.8,87.6c-51.6,102.2,13.5,116.8,55,116.8
					c16.6,0,29.4-2.3,29.4-2.3C231.8,150.9,234.8,87.6,234.8,87.6L234.8,87.6z"/>
			</g>
		</g>
	</g>
</g>
</svg>
