<svg width="40" height="44" viewBox="0 0 40 44" fill="none" xmlns="http://www.w3.org/2000/svg">
<path d="M1.24486 14.4062L1.24502 14.4035C1.33108 13.0069 2.26629 11.5371 3.71984 10.603C6.71173 8.76331 9.6825 6.8845 12.5664 5.06066C14.4597 3.8633 16.3155 2.68962 18.1152 1.56626L18.12 1.56323C19.3081 0.81226 20.6919 0.81226 21.88 1.56324L21.8848 1.56625C23.8055 2.76512 25.7896 4.01704 27.8145 5.29466C30.5807 7.03997 33.4228 8.83326 36.2831 10.6048C37.7269 11.5114 38.6685 13.0001 38.755 14.4035L38.7551 14.4062C39.0816 19.4836 39.0816 24.5164 38.7551 29.5938L38.755 29.5965C38.6682 31.0055 37.7436 32.4904 36.2872 33.3927C33.2929 35.2338 30.3196 37.1142 27.4334 38.9395C25.5402 40.1368 23.6844 41.3104 21.8848 42.4338L21.8848 42.4337L21.88 42.4368C20.6919 43.1877 19.3081 43.1877 18.12 42.4368L18.12 42.4368L18.1152 42.4338C16.3156 41.3104 14.4598 40.1368 12.5666 38.9395C9.68134 37.1148 6.70906 35.235 3.71566 33.3944C2.27261 32.4878 1.33147 30.9995 1.24502 29.5965L1.24485 29.5938C0.918382 24.5164 0.918382 19.4836 1.24486 14.4062Z" stroke="#FFAA2B" stroke-width="2"/>
<path d="M10.846 18.5314C11.3983 18.5314 11.846 18.0837 11.846 17.5314C11.846 16.9791 11.3983 16.5314 10.846 16.5314L10.846 18.5314ZM8.13416 16.5314C7.58187 16.5314 7.13416 16.9791 7.13416 17.5314C7.13416 18.0837 7.58187 18.5314 8.13416 18.5314L8.13416 16.5314ZM10.846 16.5314L8.13416 16.5314L8.13416 18.5314L10.846 18.5314L10.846 16.5314Z" fill="#FFAA2B"/>
<path d="M16.2697 22.6564C16.822 22.6564 17.2697 22.2087 17.2697 21.6564C17.2697 21.1041 16.822 20.6564 16.2697 20.6564L16.2697 22.6564ZM8.13416 20.6564C7.58187 20.6564 7.13416 21.1041 7.13416 21.6564C7.13416 22.2087 7.58187 22.6564 8.13416 22.6564L8.13416 20.6564ZM16.2697 20.6564L8.13416 20.6564L8.13416 22.6564L16.2697 22.6564L16.2697 20.6564Z" fill="#FFAA2B"/>
<path d="M19.6596 26.7814C20.2119 26.7814 20.6596 26.3337 20.6596 25.7814C20.6596 25.2291 20.2119 24.7814 19.6596 24.7814L19.6596 26.7814ZM8.13416 24.7814C7.58187 24.7814 7.13416 25.2291 7.13416 25.7814C7.13416 26.3337 7.58187 26.7814 8.13416 26.7814L8.13416 24.7814ZM19.6596 24.7814L8.13416 24.7814L8.13416 26.7814L19.6596 26.7814L19.6596 24.7814Z" fill="#FFAA2B"/>
<path d="M31.185 30.9064C31.7373 30.9064 32.185 30.4587 32.185 29.9064C32.185 29.3541 31.7373 28.9064 31.185 28.9064L31.185 30.9064ZM8.13416 28.9064C7.58187 28.9064 7.13416 29.3541 7.13416 29.9064C7.13416 30.4587 7.58187 30.9064 8.13416 30.9064L8.13416 28.9064ZM31.185 28.9064L8.13416 28.9064L8.13416 30.9064L31.185 30.9064L31.185 28.9064Z" fill="#FFAA2B"/>
<path d="M26.4388 14.4063C26.9911 14.4063 27.4388 13.9586 27.4388 13.4063C27.4388 12.854 26.9911 12.4063 26.4388 12.4063L26.4388 14.4063ZM25.0829 12.4063C24.5306 12.4063 24.0829 12.854 24.0829 13.4063C24.0829 13.9586 24.5306 14.4063 25.0829 14.4063L25.0829 12.4063ZM26.4388 12.4063L25.0829 12.4063L25.0829 14.4063L26.4388 14.4063L26.4388 12.4063Z" fill="#FFAA2B"/>
<path d="M29.1508 18.5313C29.7031 18.5313 30.1508 18.0836 30.1508 17.5313C30.1508 16.979 29.7031 16.5313 29.1508 16.5313L29.1508 18.5313ZM25.083 16.5313C24.5307 16.5313 24.083 16.979 24.083 17.5313C24.083 18.0836 24.5307 18.5313 25.083 18.5313L25.083 16.5313ZM29.1508 16.5313L25.083 16.5313L25.083 18.5313L29.1508 18.5313L29.1508 16.5313Z" fill="#FFAA2B"/>
<path d="M29.1506 22.6563C29.7028 22.6563 30.1506 22.2086 30.1506 21.6563C30.1506 21.104 29.7028 20.6563 29.1506 20.6563L29.1506 22.6563ZM25.0828 20.6563C24.5305 20.6563 24.0828 21.104 24.0828 21.6563C24.0828 22.2086 24.5305 22.6563 25.0828 22.6563L25.0828 20.6563ZM29.1506 20.6563L25.0828 20.6563L25.0828 22.6563L29.1506 22.6563L29.1506 20.6563Z" fill="#FFAA2B"/>
<path d="M31.1845 26.7813C31.7367 26.7813 32.1845 26.3336 32.1845 25.7813C32.1845 25.229 31.7367 24.7813 31.1845 24.7813L31.1845 26.7813ZM25.0828 24.7813C24.5305 24.7813 24.0828 25.229 24.0828 25.7813C24.0828 26.3336 24.5305 26.7813 25.0828 26.7813L25.0828 24.7813ZM31.1845 24.7813L25.0828 24.7813L25.0828 26.7813L31.1845 26.7813L31.1845 24.7813Z" fill="#FFAA2B"/>
</svg>
