<svg width="59" height="64" viewBox="0 0 59 64" fill="none" xmlns="http://www.w3.org/2000/svg">
<path d="M0.364198 20.8611C-0.121399 28.3086 -0.121399 35.6914 0.364198 43.1389C0.526063 45.7293 2.24184 48.2874 4.70219 49.8093C12.0185 54.2454 19.2053 58.811 25.939 62.9557C28.1727 64.3481 30.8273 64.3481 33.061 62.9557C39.7946 58.811 46.9815 54.2454 54.2978 49.8093C56.7905 48.2874 58.4739 45.7293 58.6358 43.1389C59.1214 35.6914 59.1214 28.3086 58.6358 20.8611C58.4739 18.2707 56.7582 15.7126 54.2978 14.1907C46.9815 9.72224 39.7946 5.18897 33.061 1.04427C30.8273 -0.348083 28.1727 -0.348083 25.939 1.04427C19.2053 5.18897 12.0185 9.75462 4.70219 14.1907C2.24184 15.745 0.526063 18.2707 0.364198 20.8611Z" fill="#FFAA2B"/>
<path d="M15.999 26.9999C16.8275 26.9999 17.499 26.3283 17.499 25.4999C17.499 24.6715 16.8275 23.9999 15.999 23.9999L15.999 26.9999ZM11.999 23.9999C11.1706 23.9999 10.499 24.6715 10.499 25.4999C10.499 26.3283 11.1706 26.9999 11.999 26.9999L11.999 23.9999ZM15.999 23.9999L11.999 23.9999L11.999 26.9999L15.999 26.9999L15.999 23.9999Z" fill="white"/>
<path d="M23.999 32.9999C24.8275 32.9999 25.499 32.3283 25.499 31.4999C25.499 30.6715 24.8275 29.9999 23.999 29.9999L23.999 32.9999ZM11.999 29.9999C11.1706 29.9999 10.499 30.6715 10.499 31.4999C10.499 32.3283 11.1706 32.9999 11.999 32.9999L11.999 29.9999ZM23.999 29.9999L11.999 29.9999L11.999 32.9999L23.999 32.9999L23.999 29.9999Z" fill="white"/>
<path d="M28.999 38.9999C29.8274 38.9999 30.499 38.3283 30.499 37.4999C30.499 36.6715 29.8274 35.9999 28.999 35.9999L28.999 38.9999ZM11.999 35.9999C11.1706 35.9999 10.499 36.6715 10.499 37.4999C10.499 38.3283 11.1706 38.9999 11.999 38.9999L11.999 35.9999ZM28.999 35.9999L11.999 35.9999L11.999 38.9999L28.999 38.9999L28.999 35.9999Z" fill="white"/>
<path d="M45.999 44.9999C46.8274 44.9999 47.499 44.3283 47.499 43.4999C47.499 42.6715 46.8274 41.9999 45.999 41.9999L45.999 44.9999ZM11.999 41.9999C11.1706 41.9999 10.499 42.6715 10.499 43.4999C10.499 44.3283 11.1706 44.9999 11.999 44.9999L11.999 41.9999ZM45.999 41.9999L11.999 41.9999L11.999 44.9999L45.999 44.9999L45.999 41.9999Z" fill="white"/>
<path d="M38.9985 20.9999C39.827 20.9999 40.4985 20.3283 40.4985 19.4999C40.4985 18.6715 39.827 17.9999 38.9985 17.9999L38.9985 20.9999ZM36.9985 17.9999C36.1701 17.9999 35.4985 18.6715 35.4985 19.4999C35.4985 20.3283 36.1701 20.9999 36.9985 20.9999L36.9985 17.9999ZM38.9985 17.9999L36.9985 17.9999L36.9985 20.9999L38.9985 20.9999L38.9985 17.9999Z" fill="white"/>
<path d="M42.999 26.9998C43.8275 26.9998 44.499 26.3283 44.499 25.4998C44.499 24.6714 43.8275 23.9998 42.999 23.9998L42.999 26.9998ZM36.999 23.9998C36.1706 23.9998 35.499 24.6714 35.499 25.4998C35.499 26.3283 36.1706 26.9998 36.999 26.9998L36.999 23.9998ZM42.999 23.9998L36.999 23.9998L36.999 26.9998L42.999 26.9998L42.999 23.9998Z" fill="white"/>
<path d="M42.9985 32.9999C43.827 32.9999 44.4985 32.3283 44.4985 31.4999C44.4985 30.6715 43.827 29.9999 42.9985 29.9999L42.9985 32.9999ZM36.9985 29.9999C36.1701 29.9999 35.4985 30.6715 35.4985 31.4999C35.4985 32.3283 36.1701 32.9999 36.9985 32.9999L36.9985 29.9999ZM42.9985 29.9999L36.9985 29.9999L36.9985 32.9999L42.9985 32.9999L42.9985 29.9999Z" fill="white"/>
<path d="M45.9985 38.9999C46.827 38.9999 47.4985 38.3283 47.4985 37.4999C47.4985 36.6714 46.827 35.9999 45.9985 35.9999L45.9985 38.9999ZM36.9985 35.9999C36.1701 35.9999 35.4985 36.6714 35.4985 37.4999C35.4985 38.3283 36.1701 38.9999 36.9985 38.9999L36.9985 35.9999ZM45.9985 35.9999L36.9985 35.9999L36.9985 38.9999L45.9985 38.9999L45.9985 35.9999Z" fill="white"/>
</svg>
