<svg width="24" height="24" viewBox="0 0 24 24" fill="none" xmlns="http://www.w3.org/2000/svg">
<path fill-rule="evenodd" clip-rule="evenodd" d="M12 4C12.2664 4 12.5218 4.10631 12.7095 4.29534L19.7095 11.344C20.0987 11.7358 20.0965 12.369 19.7047 12.7582C19.3128 13.1473 18.6796 13.1451 18.2905 12.7533L13 7.42608L13 19.0972C13 19.6495 12.5523 20.0972 12 20.0972C11.4477 20.0972 11 19.6495 11 19.0972L11 7.42608L5.70955 12.7533C5.32038 13.1451 4.68722 13.1473 4.29534 12.7582C3.90347 12.369 3.90128 11.7358 4.29045 11.344L11.2905 4.29534C11.4782 4.10631 11.7336 4 12 4Z" fill="#7A7F8F"/>
</svg>
