<svg width="24" height="24" viewBox="0 0 24 24" fill="none" xmlns="http://www.w3.org/2000/svg">
<path fill-rule="evenodd" clip-rule="evenodd" d="M12 4C12.5523 4 13 4.44772 13 5V16.6711L18.2905 11.344C18.6796 10.9521 19.3128 10.9499 19.7047 11.3391C20.0965 11.7282 20.0987 12.3614 19.7095 12.7533L12.7095 19.8019C12.5218 19.9909 12.2664 20.0972 12 20.0972C11.7336 20.0972 11.4782 19.9909 11.2905 19.8019L4.29045 12.7533C3.90128 12.3614 3.90347 11.7282 4.29534 11.3391C4.68722 10.9499 5.32038 10.9521 5.70955 11.344L11 16.6711L11 5C11 4.44772 11.4477 4 12 4Z" fill="#7A7F8F"/>
</svg>
