<svg width="24" height="24" viewBox="0 0 24 24" fill="none" xmlns="http://www.w3.org/2000/svg">
<path fill-rule="evenodd" clip-rule="evenodd" d="M17.0752 5.61917C16.3037 4.89388 15.0139 4.66135 13.8838 5.72375C12.3271 7.18712 10.4177 8.98869 8.8971 10.4247C8.13688 11.1427 7.47399 11.7691 7.00116 12.2161L6.24891 12.9274L6.24807 12.9281C5.29067 13.8399 4.97297 14.7875 5.0018 15.6165C5.0314 16.4675 5.43038 17.2972 6.08976 17.9314C7.38689 19.1789 9.59283 19.589 11.5486 17.7504C13.9289 15.5128 15.8722 13.7038 17.2208 12.4539C17.8951 11.829 18.4207 11.3438 18.7778 11.0148C18.9564 10.8502 19.0929 10.7247 19.1848 10.6403L19.3238 10.5127L20 11.2494L20.6756 11.9867L20.5379 12.1131C20.4467 12.1969 20.3109 12.3218 20.133 12.4857C19.7772 12.8135 19.253 13.2973 18.5803 13.9208C17.2348 15.1678 15.2949 16.9736 12.9185 19.2076C10.1176 21.8407 6.6984 21.2916 4.70338 19.3729C3.7167 18.424 3.05284 17.1188 3.00301 15.6861C2.95241 14.2313 3.53869 12.7465 4.86883 11.4798L4.87127 11.4775L5.62726 10.7627C6.10027 10.3155 6.7634 9.68887 7.52389 8.97066C9.04474 7.53437 10.9555 5.73153 12.5139 4.26655C14.4988 2.4006 16.9916 2.79557 18.4451 4.16196C19.1656 4.83928 19.6663 5.78424 19.7051 6.841C19.7447 7.9206 19.2977 9.00097 18.3338 9.90711C16.7773 11.3703 15.2922 12.7731 13.9837 14.0097C13.7866 14.196 13.5935 14.3785 13.4047 14.5569C12.3408 15.5625 11.415 16.4376 10.6935 17.1159C9.4666 18.2693 7.88974 18.1519 6.94453 17.2522C6.48739 16.817 6.18474 16.1981 6.18857 15.5031C6.19247 14.7949 6.51278 14.1177 7.09855 13.567C7.93202 12.7835 9.84124 10.9821 11.543 9.37576C12.3937 8.57276 13.1923 7.81877 13.7782 7.26553L14.7369 6.36009L15.4238 7.08683L16.1104 7.8139L15.1513 8.71967C14.5653 9.27297 13.7667 10.027 12.9159 10.8302C11.2147 12.436 9.30373 14.239 8.46843 15.0242C8.21982 15.258 8.18898 15.4338 8.18854 15.5141C8.18803 15.6076 8.22782 15.7125 8.32347 15.8036C8.41928 15.8948 8.55499 15.9544 8.70752 15.954C8.84814 15.9536 9.06561 15.9012 9.32358 15.6587C10.0428 14.9826 10.9661 14.1099 12.0299 13.1044C12.2189 12.9257 12.4124 12.7429 12.6099 12.5562C13.9187 11.3193 15.4054 9.91504 16.9639 8.44991C17.5576 7.89187 17.7225 7.35119 17.7064 6.91432C17.6896 6.45461 17.4672 5.98768 17.0752 5.61917ZM20 11.2494L20.6756 11.9867C21.0828 11.6136 21.1104 10.981 20.7373 10.5739C20.3642 10.1667 19.731 10.1396 19.3238 10.5127L20 11.2494ZM16.1508 6.40019C16.5301 6.8017 16.5119 7.43468 16.1104 7.8139L15.4238 7.08683L14.7369 6.36009C15.1384 5.98087 15.7716 5.99868 16.1508 6.40019Z" fill="#7A7F8F"/>
</svg>
