<svg width="24" height="24" viewBox="0 0 24 24" fill="none" xmlns="http://www.w3.org/2000/svg">
<path fill-rule="evenodd" clip-rule="evenodd" d="M11.9333 4C8.70519 4 6.05778 6.6693 6.05778 10V14.8462C6.05778 15.2802 5.99774 15.6638 5.89932 16H17.9673C17.8689 15.6638 17.8089 15.2802 17.8089 14.8462V10.0007C17.8089 6.67003 15.1615 4 11.9333 4ZM19.8089 10C19.8089 5.59874 16.2997 2 11.9333 2C7.56695 2 4.05778 5.59871 4.05778 10V14.8462C4.05778 15.4158 3.87748 15.7393 3.7426 15.911C3.67025 16.0031 3.60134 16.063 3.5584 16.0958C3.54025 16.1097 3.52739 16.1182 3.52186 16.1217C3.12579 16.3372 2.92188 16.7926 3.02759 17.2333C3.13546 17.6829 3.53757 18 4 18H19.8667C20.3291 18 20.7312 17.6829 20.8391 17.2333C20.9448 16.7926 20.7409 16.3372 20.3448 16.1217C20.3393 16.1182 20.3264 16.1097 20.3083 16.0958C20.2653 16.063 20.1964 16.0031 20.1241 15.911C19.9892 15.7393 19.8089 15.4158 19.8089 14.8462V10Z" fill="#7A7F8F"/>
<path d="M14 19.3333C14 20.2538 13.1046 21 12 21C10.8954 21 10 20.2538 10 19.3333C10 19 10 19 12 19C14 19 14 19 14 19.3333Z" fill="#7A7F8F"/>
</svg>
