<svg width="24" height="24" viewBox="0 0 24 24" fill="none" xmlns="http://www.w3.org/2000/svg">
<path fill-rule="evenodd" clip-rule="evenodd" d="M6 5.73792C6.55228 5.73792 7 6.18563 7 6.73792V18.7379C7 19.2902 7.44772 19.7379 8 19.7379H16C16.5523 19.7379 17 19.2902 17 18.7379V6.73792C17 6.18563 17.4477 5.73792 18 5.73792C18.5523 5.73792 19 6.18563 19 6.73792V18.7379C19 20.3948 17.6569 21.7379 16 21.7379H8C6.34315 21.7379 5 20.3948 5 18.7379V6.73792C5 6.18563 5.44772 5.73792 6 5.73792Z" fill="#7A7F8F"/>
<path fill-rule="evenodd" clip-rule="evenodd" d="M10 9.73792C10.5523 9.73792 11 10.1856 11 10.7379V16.7379C11 17.2902 10.5523 17.7379 10 17.7379C9.44772 17.7379 9 17.2902 9 16.7379V10.7379C9 10.1856 9.44772 9.73792 10 9.73792Z" fill="#7A7F8F"/>
<path fill-rule="evenodd" clip-rule="evenodd" d="M14 9.73792C14.5523 9.73792 15 10.1856 15 10.7379V16.7379C15 17.2902 14.5523 17.7379 14 17.7379C13.4477 17.7379 13 17.2902 13 16.7379V10.7379C13 10.1856 13.4477 9.73792 14 9.73792Z" fill="#7A7F8F"/>
<path fill-rule="evenodd" clip-rule="evenodd" d="M3 6.73792C3 6.18563 3.44772 5.73792 4 5.73792H20C20.5523 5.73792 21 6.18563 21 6.73792C21 7.2902 20.5523 7.73792 20 7.73792H4C3.44772 7.73792 3 7.2902 3 6.73792Z" fill="#7A7F8F"/>
<path fill-rule="evenodd" clip-rule="evenodd" d="M7 3.73792C7 2.63335 7.89543 1.73792 9 1.73792H15C16.1046 1.73792 17 2.63335 17 3.73792V5.73792C17 6.84248 16.1046 7.73792 15 7.73792H9C7.89543 7.73792 7 6.84248 7 5.73792V3.73792ZM9 3.73792V5.73792H15V3.73792H9Z" fill="#7A7F8F"/>
</svg>
