<svg width="24" height="24" viewBox="0 0 24 24" fill="none" xmlns="http://www.w3.org/2000/svg">
<path fill-rule="evenodd" clip-rule="evenodd" d="M4 19.1C4 19.6487 4.40843 20 4.8 20L19.2 20C19.5916 20 20 19.6487 20 19.1L20 9.7L4 9.7L4 19.1ZM4 7.7L20 7.7V5.9C20 5.35131 19.5916 5 19.2 5L4.8 5C4.40843 5 4 5.35131 4 5.9V7.7ZM4.8 22C3.20335 22 2 20.65 2 19.1L2 5.9C2 4.35001 3.20335 3 4.8 3L19.2 3C20.7967 3 22 4.35001 22 5.9L22 19.1C22 20.65 20.7967 22 19.2 22L4.8 22Z" fill="#7A7F8F"/>
<path fill-rule="evenodd" clip-rule="evenodd" d="M8 2C8.55228 2 9 2.44772 9 3V5C9 5.55228 8.55228 6 8 6C7.44772 6 7 5.55228 7 5V3C7 2.44772 7.44772 2 8 2Z" fill="#7A7F8F"/>
<path fill-rule="evenodd" clip-rule="evenodd" d="M16 2C16.5523 2 17 2.44772 17 3V5C17 5.55228 16.5523 6 16 6C15.4477 6 15 5.55228 15 5V3C15 2.44772 15.4477 2 16 2Z" fill="#7A7F8F"/>
</svg>
