<svg width="24" height="24" viewBox="0 0 24 24" fill="none" xmlns="http://www.w3.org/2000/svg">
<path fill-rule="evenodd" clip-rule="evenodd" d="M12 16C15.3137 16 18 13.3137 18 10C18 6.68629 15.3137 4 12 4C8.68629 4 6 6.68629 6 10C6 13.3137 8.68629 16 12 16ZM12 18C16.4183 18 20 14.4183 20 10C20 5.58172 16.4183 2 12 2C7.58172 2 4 5.58172 4 10C4 14.4183 7.58172 18 12 18Z" fill="#7A7F8F"/>
<path fill-rule="evenodd" clip-rule="evenodd" d="M6.96194 14.1131C7.45177 14.3682 7.64204 14.9721 7.38692 15.462L5.76746 18.5713L7.07597 18.4077C7.36177 18.372 7.64909 18.4613 7.86437 18.6526L8.74322 19.4338L10.1318 17.0039C10.4058 16.5244 11.0166 16.3578 11.4961 16.6318C11.9757 16.9058 12.1423 17.5166 11.8682 17.9962L9.86825 21.4962C9.71873 21.7578 9.45918 21.9381 9.16179 21.9868C8.8644 22.0356 8.56088 21.9476 8.33564 21.7474L6.87435 20.4485L4.12404 20.7923C3.75515 20.8384 3.39112 20.6761 3.17892 20.3708C2.96671 20.0656 2.94136 19.6678 3.11309 19.3381L5.61309 14.5381C5.86821 14.0483 6.47211 13.858 6.96194 14.1131Z" fill="#7A7F8F"/>
<path fill-rule="evenodd" clip-rule="evenodd" d="M17.0381 14.1131C16.5482 14.3682 16.358 14.9721 16.6131 15.462L18.2325 18.5713L16.924 18.4077C16.6382 18.372 16.3509 18.4613 16.1356 18.6526L15.2568 19.4338L13.8682 17.0039C13.5942 16.5244 12.9834 16.3578 12.5039 16.6318C12.0243 16.9058 11.8577 17.5166 12.1318 17.9962L14.1318 21.4962C14.2813 21.7578 14.5408 21.9381 14.8382 21.9868C15.1356 22.0356 15.4391 21.9476 15.6644 21.7474L17.1256 20.4485L19.876 20.7923C20.2449 20.8384 20.6089 20.6761 20.8211 20.3708C21.0333 20.0656 21.0586 19.6678 20.8869 19.3381L18.3869 14.5381C18.1318 14.0483 17.5279 13.858 17.0381 14.1131Z" fill="#7A7F8F"/>
</svg>
