<svg width="24" height="24" viewBox="0 0 24 24" fill="none" xmlns="http://www.w3.org/2000/svg">
<path fill-rule="evenodd" clip-rule="evenodd" d="M6 5C5.44772 5 5 5.44772 5 6V18C5 18.5523 5.44772 19 6 19H18C18.5523 19 19 18.5523 19 18V11C19 10.4477 19.4477 10 20 10C20.5523 10 21 10.4477 21 11V18C21 19.6569 19.6569 21 18 21H6C4.34315 21 3 19.6569 3 18V6C3 4.34315 4.34315 3 6 3H16C16.5523 3 17 3.44772 17 4C17 4.55228 16.5523 5 16 5H6ZM21.6897 3.77586C22.0896 4.15675 22.105 4.78972 21.7241 5.18966L11.7241 15.6897C11.5383 15.8848 11.2816 15.9966 11.0122 15.9999C10.7428 16.0032 10.4834 15.8976 10.2929 15.7071L7.79289 13.2071C7.40237 12.8166 7.40237 12.1834 7.79289 11.7929C8.18342 11.4024 8.81658 11.4024 9.20711 11.7929L10.9825 13.5683L20.2759 3.81034C20.6567 3.41041 21.2897 3.39498 21.6897 3.77586Z" fill="#7A7F8F"/>
</svg>
