<svg width="24" height="24" viewBox="0 0 24 24" fill="none" xmlns="http://www.w3.org/2000/svg">
<path fill-rule="evenodd" clip-rule="evenodd" d="M6.36469 5.29289C6.75521 4.90237 7.38838 4.90237 7.7789 5.29289L13.7789 11.2929C13.9664 11.4804 14.0718 11.7348 14.0718 12C14.0718 12.2652 13.9664 12.5196 13.7789 12.7071L7.7789 18.7071C7.38838 19.0976 6.75521 19.0976 6.36469 18.7071C5.97416 18.3166 5.97416 17.6834 6.36469 17.2929L11.6576 12L6.36469 6.70711C5.97416 6.31658 5.97416 5.68342 6.36469 5.29289ZM17 19C16.4477 19 16 18.5523 16 18V6C16 5.44772 16.4477 5 17 5C17.5523 5 18 5.44772 18 6V18C18 18.5523 17.5523 19 17 19Z" fill="#7A7F8F"/>
</svg>
