<svg width="24" height="24" viewBox="0 0 24 24" fill="none" xmlns="http://www.w3.org/2000/svg">
<path fill-rule="evenodd" clip-rule="evenodd" d="M12 4C7.58172 4 4 7.58172 4 12C4 16.4183 7.58172 20 12 20C16.4183 20 20 16.4183 20 12C20 7.58172 16.4183 4 12 4ZM2 12C2 6.47715 6.47715 2 12 2C17.5228 2 22 6.47715 22 12C22 17.5228 17.5228 22 12 22C6.47715 22 2 17.5228 2 12Z" fill="#7A7F8F"/>
<path fill-rule="evenodd" clip-rule="evenodd" d="M12.7071 7.2929C13.0977 7.68343 13.0977 8.31659 12.7071 8.70711L10.4142 11H16C16.5523 11 17 11.4477 17 12C17 12.5522 16.5523 13 16 13H10.4142L12.7071 15.2929C13.0977 15.6834 13.0977 16.3166 12.7071 16.7071C12.3166 17.0976 11.6834 17.0976 11.2929 16.7071L7.29289 12.7071C7.10535 12.5195 7 12.2652 7 11.9999C7 11.7347 7.10536 11.4804 7.2929 11.2928L11.2929 7.29289C11.6835 6.90237 12.3166 6.90237 12.7071 7.2929Z" fill="#7A7F8F"/>
</svg>
