<svg width="24" height="24" viewBox="0 0 24 24" fill="none" xmlns="http://www.w3.org/2000/svg">
<path fill-rule="evenodd" clip-rule="evenodd" d="M12 4C7.58172 4 4 7.58172 4 12C4 16.4183 7.58172 20 12 20C16.4183 20 20 16.4183 20 12C20 7.58172 16.4183 4 12 4ZM2 12C2 6.47715 6.47715 2 12 2C17.5228 2 22 6.47715 22 12C22 17.5228 17.5228 22 12 22C6.47715 22 2 17.5228 2 12Z" fill="#7A7F8F"/>
<path fill-rule="evenodd" clip-rule="evenodd" d="M12 7C12.5522 7 13 7.44772 13 8V13.5858L15.2929 11.2929C15.6834 10.9023 16.3166 10.9023 16.7071 11.2929C17.0976 11.6834 17.0976 12.3166 16.7071 12.7071L12.7071 16.7071C12.5195 16.8946 12.2652 17 11.9999 17C11.7347 17 11.4804 16.8946 11.2928 16.7071L7.29289 12.7071C6.90237 12.3165 6.90237 11.6834 7.2929 11.2929C7.68343 10.9023 8.31659 10.9023 8.70711 11.2929L11 13.5858V8C11 7.44772 11.4477 7 12 7Z" fill="#7A7F8F"/>
</svg>
