<svg width="24" height="24" viewBox="0 0 24 24" fill="none" xmlns="http://www.w3.org/2000/svg">
<path fill-rule="evenodd" clip-rule="evenodd" d="M12 4C7.58172 4 4 7.58172 4 12C4 16.4183 7.58172 20 12 20C16.4183 20 20 16.4183 20 12C20 7.58172 16.4183 4 12 4ZM2 12C2 6.47715 6.47715 2 12 2C17.5228 2 22 6.47715 22 12C22 17.5228 17.5228 22 12 22C6.47715 22 2 17.5228 2 12Z" fill="#7A7F8F"/>
<path d="M11.0001 16C11.0001 15.4477 11.4478 15 12.0001 15C12.5523 15 13.0001 15.4477 13.0001 16C13.0001 16.5523 12.5523 17 12.0001 17C11.4478 17 11.0001 16.5523 11.0001 16Z" fill="#7A7F8F"/>
<path fill-rule="evenodd" clip-rule="evenodd" d="M12.0001 14C11.4478 14 11.0001 13.5523 11.0001 13V7.99997C11.0001 7.44769 11.4478 6.99997 12.0001 6.99997C12.5523 6.99997 13.0001 7.44769 13.0001 7.99997L13.0001 13C13.0001 13.5523 12.5523 14 12.0001 14Z" fill="#7A7F8F"/>
</svg>
