<svg width="24" height="24" viewBox="0 0 24 24" fill="none" xmlns="http://www.w3.org/2000/svg">
<path fill-rule="evenodd" clip-rule="evenodd" d="M16.2563 5.22552C14.8693 4.35231 13.2037 3.89631 11.4419 4.0195C7.03442 4.3277 3.71127 8.15055 4.01947 12.5581C4.32768 16.9656 8.15052 20.2887 12.558 19.9805C16.9656 19.6723 20.2887 15.8495 19.9805 11.442C19.9378 10.831 19.8278 10.2421 19.6587 9.68141C19.4992 9.15265 19.7985 8.59472 20.3273 8.43524C20.8561 8.27575 21.414 8.5751 21.5735 9.10386C21.7853 9.80613 21.9224 10.542 21.9756 11.3024C22.3609 16.8118 18.2069 21.5904 12.6975 21.9757C7.18816 22.3609 2.4096 18.207 2.02434 12.6976C1.63909 7.18818 5.79303 2.40963 11.3024 2.02437C13.5019 1.87057 15.5876 2.44119 17.3218 3.53299C17.7892 3.82723 17.9295 4.44464 17.6353 4.91202C17.3411 5.3794 16.7237 5.51975 16.2563 5.22552Z" fill="#7A7F8F"/>
<path fill-rule="evenodd" clip-rule="evenodd" d="M21.6897 3.77586C22.0896 4.15675 22.105 4.78973 21.7241 5.18966L11.7241 15.6897C11.5383 15.8848 11.2816 15.9966 11.0122 15.9999C10.7428 16.0032 10.4834 15.8976 10.2929 15.7071L7.79289 13.2071C7.40237 12.8166 7.40237 12.1834 7.79289 11.7929C8.18342 11.4024 8.81658 11.4024 9.20711 11.7929L10.9825 13.5683L20.2759 3.81035C20.6567 3.41042 21.2897 3.39498 21.6897 3.77586Z" fill="#7A7F8F"/>
</svg>
