<svg width="24" height="24" viewBox="0 0 24 24" fill="none" xmlns="http://www.w3.org/2000/svg">
<path fill-rule="evenodd" clip-rule="evenodd" d="M12 4C7.58172 4 4 7.58172 4 12C4 16.4183 7.58172 20 12 20C16.4183 20 20 16.4183 20 12C20 7.58172 16.4183 4 12 4ZM2 12C2 6.47715 6.47715 2 12 2C17.5228 2 22 6.47715 22 12C22 17.5228 17.5228 22 12 22C6.47715 22 2 17.5228 2 12Z" fill="#7A7F8F"/>
<path fill-rule="evenodd" clip-rule="evenodd" d="M11.6804 8.85214C11.2608 8.92568 10.7648 9.20628 10.3944 9.94718C10.1474 10.4412 9.54674 10.6414 9.05276 10.3944C8.55878 10.1474 8.35856 9.54672 8.60555 9.05275C9.2351 7.79364 10.2392 7.07425 11.3352 6.88216C12.397 6.69607 13.4685 7.02092 14.2241 7.68763C14.9989 8.37132 15.4543 9.4344 15.1869 10.632C14.9279 11.7917 14.035 12.8902 12.5369 13.8436C12.0709 14.1402 11.4528 14.0028 11.1563 13.5369C10.8598 13.0709 10.9972 12.4528 11.4631 12.1563C12.7149 11.3597 13.1345 10.6457 13.2349 10.1961C13.3269 9.78428 13.1885 9.44111 12.9009 9.1873C12.5939 8.9165 12.1342 8.77261 11.6804 8.85214Z" fill="#7A7F8F"/>
<path d="M13 16C13 16.5523 12.5523 17 12 17C11.4477 17 11 16.5523 11 16C11 15.4477 11.4477 15 12 15C12.5523 15 13 15.4477 13 16Z" fill="#7A7F8F"/>
</svg>
