<svg width="24" height="24" viewBox="0 0 24 24" fill="none" xmlns="http://www.w3.org/2000/svg">
<path fill-rule="evenodd" clip-rule="evenodd" d="M12 4C7.58172 4 4 7.58172 4 12C4 16.4183 7.58172 20 12 20C16.4183 20 20 16.4183 20 12C20 7.58172 16.4183 4 12 4ZM2 12C2 6.47715 6.47715 2 12 2C17.5228 2 22 6.47715 22 12C22 17.5228 17.5228 22 12 22C6.47715 22 2 17.5228 2 12Z" fill="#7A7F8F"/>
<path fill-rule="evenodd" clip-rule="evenodd" d="M12.0001 7C12.2653 7 12.5196 7.10536 12.7072 7.2929L16.7071 11.2929C17.0976 11.6835 17.0976 12.3166 16.7071 12.7071C16.3166 13.0977 15.6834 13.0977 15.2929 12.7071L13 10.4142V16C13 16.5523 12.5523 17 12 17C11.4478 17 11 16.5523 11 16V10.4142L8.70711 12.7071C8.31658 13.0977 7.68342 13.0977 7.29289 12.7071C6.90237 12.3166 6.90237 11.6834 7.29289 11.2929L11.2929 7.29289C11.4805 7.10535 11.7348 7 12.0001 7Z" fill="#7A7F8F"/>
</svg>
