<svg width="24" height="24" viewBox="0 0 24 24" fill="none" xmlns="http://www.w3.org/2000/svg">
<path fill-rule="evenodd" clip-rule="evenodd" d="M5 20H19V6L5 6L5 20ZM19 22H5C3.89543 22 3 21.1046 3 20V6C3 4.89543 3.89543 4 5 4H19C20.1046 4 21 4.89543 21 6V20C21 21.1046 20.1046 22 19 22Z" fill="#7A7F8F"/>
<path d="M7 4C7 2.89543 7.89543 2 9 2H15C16.1046 2 17 2.89543 17 4V5C17 6.65685 15.6569 8 14 8H10C8.34315 8 7 6.65685 7 5V4Z" fill="white"/>
<path fill-rule="evenodd" clip-rule="evenodd" d="M15 4H9V5C9 5.55228 9.44772 6 10 6H14C14.5523 6 15 5.55228 15 5V4ZM9 2C7.89543 2 7 2.89543 7 4V5C7 6.65685 8.34315 8 10 8H14C15.6569 8 17 6.65685 17 5V4C17 2.89543 16.1046 2 15 2H9Z" fill="#7A7F8F"/>
</svg>
