<svg width="24" height="24" viewBox="0 0 24 24" fill="none" xmlns="http://www.w3.org/2000/svg">
<path fill-rule="evenodd" clip-rule="evenodd" d="M9.73994 6.32733C10.1114 6.73599 10.0813 7.36844 9.67267 7.73995L4.98661 12L9.67267 16.2601C10.0813 16.6316 10.1114 17.264 9.73994 17.6727C9.36843 18.0813 8.73598 18.1115 8.32733 17.7399L2.82733 12.7399C2.61885 12.5504 2.5 12.2818 2.5 12C2.5 11.7183 2.61885 11.4496 2.82733 11.2601L8.32733 6.26007C8.73598 5.88856 9.36843 5.91868 9.73994 6.32733ZM14.2601 6.32733C14.6316 5.91868 15.264 5.88856 15.6727 6.26007L21.1727 11.2601C21.3811 11.4496 21.5 11.7183 21.5 12C21.5 12.2818 21.3811 12.5504 21.1727 12.7399L15.6727 17.7399C15.264 18.1115 14.6316 18.0813 14.2601 17.6727C13.8886 17.264 13.9187 16.6316 14.3273 16.2601L19.0134 12L14.3273 7.73995C13.9187 7.36844 13.8886 6.73599 14.2601 6.32733Z" fill="#7A7F8F"/>
</svg>
