<svg width="24" height="24" viewBox="0 0 24 24" fill="none" xmlns="http://www.w3.org/2000/svg">
<path fill-rule="evenodd" clip-rule="evenodd" d="M12 10.5455C11.1967 10.5455 10.5455 11.1967 10.5455 12C10.5455 12.8033 11.1967 13.4546 12 13.4546C12.8033 13.4546 13.4545 12.8033 13.4545 12C13.4545 11.1967 12.8033 10.5455 12 10.5455ZM8.54546 12C8.54546 10.0921 10.0921 8.54547 12 8.54547C13.9079 8.54547 15.4545 10.0921 15.4545 12C15.4545 13.9079 13.9079 15.4546 12 15.4546C10.0921 15.4546 8.54546 13.9079 8.54546 12Z" fill="#7A7F8F"/>
<path fill-rule="evenodd" clip-rule="evenodd" d="M12 4C11.8312 4 11.6694 4.06705 11.55 4.18639C11.4307 4.30573 11.3636 4.46759 11.3636 4.63636V4.77944C11.3618 5.23775 11.226 5.68551 10.9729 6.06762C10.7199 6.44973 10.3606 6.74951 9.93939 6.93005C9.86081 6.96373 9.77843 6.98711 9.6943 6.99977C9.31643 7.1288 8.91074 7.15978 8.51565 7.08814C8.05364 7.00437 7.62731 6.78411 7.29164 6.45577L7.28376 6.44806L7.23471 6.39892C7.17561 6.33976 7.10503 6.29243 7.02778 6.2604C6.95053 6.22838 6.86772 6.21189 6.78409 6.21189C6.70046 6.21189 6.61765 6.22838 6.5404 6.2604C6.46315 6.29243 6.39296 6.33937 6.33386 6.39853L6.33308 6.39932C6.27391 6.45842 6.22697 6.5286 6.19495 6.60586C6.16292 6.68311 6.14644 6.76592 6.14644 6.84955C6.14644 6.93317 6.16292 7.01598 6.19495 7.09323C6.22697 7.17049 6.27391 7.24067 6.33308 7.29977L6.39036 7.35706C6.7187 7.69272 6.93892 8.11909 7.02269 8.58111C7.10458 9.03276 7.05237 9.49826 6.87288 9.92022C6.70812 10.3503 6.42051 10.7227 6.04554 10.9909C5.662 11.2652 5.2048 11.4178 4.73338 11.4288L4.71 11.4291H4.63636C4.46759 11.4291 4.30573 11.4961 4.18639 11.6155C4.06705 11.7348 4 11.8967 4 12.0655C4 12.2342 4.06705 12.3961 4.18639 12.5154C4.30573 12.6348 4.46759 12.7018 4.63636 12.7018H4.77944C5.23775 12.7036 5.68551 12.8395 6.06762 13.0925C6.44825 13.3446 6.74718 13.702 6.92794 14.1212C7.11579 14.5495 7.17159 15.0241 7.08814 15.4843C7.00437 15.9464 6.78411 16.3727 6.45577 16.7084L6.44806 16.7162L6.39892 16.7653C6.33976 16.8244 6.29243 16.895 6.2604 16.9722C6.22838 17.0495 6.21189 17.1323 6.21189 17.2159C6.21189 17.2995 6.22838 17.3823 6.2604 17.4596C6.29243 17.5369 6.33937 17.607 6.39853 17.6661L6.39932 17.6669C6.45842 17.7261 6.5286 17.773 6.60586 17.8051C6.68311 17.8371 6.76592 17.8536 6.84955 17.8536C6.93317 17.8536 7.01598 17.8371 7.09323 17.8051C7.17049 17.773 7.24067 17.7261 7.29977 17.6669L7.35706 17.6096C7.69272 17.2813 8.11909 17.0611 8.58111 16.9773C9.03275 16.8954 9.49825 16.9476 9.92021 17.1271C10.3503 17.2919 10.7227 17.5795 10.9909 17.9545C11.2652 18.338 11.4178 18.7952 11.4288 19.2666L11.4291 19.29V19.3636C11.4291 19.5324 11.4961 19.6943 11.6155 19.8136C11.7348 19.933 11.8967 20 12.0655 20C12.2342 20 12.3961 19.933 12.5154 19.8136C12.6348 19.6943 12.7018 19.5324 12.7018 19.3636V19.2245L12.7018 19.2206C12.7037 18.7623 12.8395 18.3145 13.0925 17.9324C13.3446 17.5518 13.702 17.2528 14.1212 17.0721C14.5495 16.8842 15.0241 16.8284 15.4843 16.9119C15.9464 16.9956 16.3727 17.2159 16.7084 17.5442L16.7162 17.5519L16.7653 17.6011C16.8244 17.6602 16.895 17.7076 16.9722 17.7396C17.0495 17.7716 17.1323 17.7881 17.2159 17.7881C17.2995 17.7881 17.3823 17.7716 17.4596 17.7396C17.5369 17.7076 17.607 17.6606 17.6661 17.6015L17.6669 17.6007C17.7261 17.5416 17.773 17.4714 17.8051 17.3941C17.8371 17.3169 17.8536 17.2341 17.8536 17.1505C17.8536 17.0668 17.8371 16.984 17.8051 16.9068C17.773 16.8295 17.7261 16.7593 17.6669 16.7002L17.6096 16.6429C17.2813 16.3073 17.0611 15.8809 16.9773 15.4189C16.8939 14.9586 16.9497 14.484 17.1375 14.0557C17.3183 13.6366 17.6172 13.2791 17.9978 13.0271C18.3799 12.774 18.8277 12.6382 19.286 12.6364L19.29 12.6364L19.3636 12.6364C19.5324 12.6364 19.6943 12.5693 19.8136 12.45C19.933 12.3306 20 12.1688 20 12C20 11.8312 19.933 11.6694 19.8136 11.55C19.6943 11.4307 19.5324 11.3636 19.3636 11.3636H19.2245L19.2206 11.3636C18.7623 11.3618 18.3145 11.226 17.9324 10.9729C17.5503 10.7199 17.2505 10.3606 17.07 9.93939C17.0363 9.86081 17.0129 9.77844 17.0002 9.6943C16.8712 9.31643 16.8402 8.91074 16.9119 8.51565C16.9956 8.05364 17.2159 7.62731 17.5442 7.29164L17.5519 7.28376L17.6011 7.23471C17.6602 7.17561 17.7076 7.10503 17.7396 7.02778C17.7716 6.95053 17.7881 6.86772 17.7881 6.78409C17.7881 6.70046 17.7716 6.61766 17.7396 6.5404C17.7076 6.46315 17.6606 6.39297 17.6015 6.33386L17.6007 6.33308C17.5416 6.27391 17.4714 6.22697 17.3941 6.19495C17.3169 6.16292 17.2341 6.14644 17.1505 6.14644C17.0668 6.14644 16.984 6.16292 16.9068 6.19495C16.8295 6.22697 16.7593 6.27391 16.7002 6.33308L16.6429 6.39036C16.3073 6.7187 15.8809 6.93892 15.4189 7.02269C14.9586 7.10614 14.484 7.05034 14.0557 6.86249C13.6366 6.68173 13.2791 6.3828 13.0271 6.00217C12.774 5.62006 12.6382 5.17229 12.6364 4.71399L12.6364 4.71V4.63636C12.6364 4.46759 12.5693 4.30573 12.45 4.18639C12.3306 4.06705 12.1688 4 12 4ZM18.0545 14.4545L18.9694 14.8583C18.9412 14.9223 18.9327 14.9933 18.9452 15.0621C18.9575 15.1297 18.9893 15.1921 19.0368 15.2417L19.0804 15.2852C19.3255 15.5301 19.5199 15.8208 19.6526 16.1409C19.7853 16.4609 19.8536 16.804 19.8536 17.1505C19.8536 17.4969 19.7853 17.84 19.6526 18.16C19.5199 18.4801 19.3255 18.7708 19.0804 19.0157L18.3741 18.3086L19.0811 19.0149C18.8363 19.26 18.5455 19.4545 18.2255 19.5871C17.9054 19.7198 17.5624 19.7881 17.2159 19.7881C16.8694 19.7881 16.5264 19.7198 16.2063 19.5871C15.8863 19.4545 15.5955 19.26 15.3507 19.0149L15.3072 18.9714C15.2576 18.9239 15.1951 18.892 15.1275 18.8798C15.0587 18.8673 14.9877 18.8757 14.9238 18.904L14.914 18.9083C14.8512 18.9352 14.7977 18.9798 14.76 19.0367C14.7226 19.0932 14.7024 19.1593 14.7018 19.2271V19.3636C14.7018 20.0628 14.4241 20.7334 13.9296 21.2278C13.4352 21.7222 12.7647 22 12.0655 22C11.3662 22 10.6957 21.7222 10.2013 21.2278C9.70685 20.7334 9.42909 20.0628 9.42909 19.3636V19.3055C9.42599 19.2381 9.40346 19.1729 9.36414 19.118C9.32328 19.0608 9.26619 19.0173 9.20027 18.9931C9.1805 18.9858 9.16096 18.9779 9.14169 18.9694C9.07771 18.9412 9.00674 18.9327 8.93793 18.9452C8.87033 18.9575 8.80787 18.9894 8.75829 19.0368L8.71477 19.0804C8.71464 19.0805 8.7149 19.0802 8.71477 19.0804C8.47 19.3253 8.17899 19.52 7.85912 19.6526C7.53907 19.7853 7.19601 19.8536 6.84955 19.8536C6.50309 19.8536 6.16002 19.7853 5.83998 19.6526C5.51993 19.5199 5.22917 19.3255 4.98432 19.0804C4.73957 18.8357 4.54539 18.5452 4.41286 18.2255C4.28018 17.9054 4.21189 17.5624 4.21189 17.2159C4.21189 16.8694 4.28018 16.5264 4.41286 16.2063C4.54546 15.8865 4.73978 15.5958 4.98471 15.3511C4.98484 15.3509 4.98458 15.3512 4.98471 15.3511L5.02864 15.3071C5.07611 15.2576 5.10797 15.1951 5.12023 15.1275C5.13271 15.0587 5.12428 14.9877 5.09605 14.9238L5.09172 14.914C5.06483 14.8512 5.02023 14.7977 4.96332 14.76C4.90681 14.7226 4.84065 14.7024 4.77289 14.7018H4.63636C3.93716 14.7018 3.26659 14.4241 2.77217 13.9296C2.27776 13.4352 2 12.7647 2 12.0655C2 11.3662 2.27776 10.6957 2.77217 10.2013C3.26659 9.70685 3.93716 9.42909 4.63636 9.42909H4.6945C4.76191 9.42599 4.82706 9.40346 4.88204 9.36414C4.93917 9.32328 4.98268 9.26619 5.00692 9.20027C5.01419 9.1805 5.02209 9.16096 5.03059 9.14169C5.05883 9.07771 5.06725 9.00674 5.05477 8.93793C5.04252 8.87033 5.01065 8.80787 4.96317 8.7583L4.91965 8.71477C4.67453 8.46993 4.48008 8.17916 4.3474 7.85912C4.21473 7.53907 4.14644 7.196 4.14644 6.84955C4.14644 6.50309 4.21473 6.16002 4.3474 5.83998C4.48 5.5201 4.67432 5.22948 4.91926 4.98471C5.16402 4.73978 5.45464 4.54546 5.77452 4.41286C6.09457 4.28018 6.43763 4.21189 6.78409 4.21189C7.13055 4.21189 7.47361 4.28018 7.79366 4.41286C8.11371 4.54553 8.40447 4.73998 8.64932 4.9851L8.69284 5.02863C8.74242 5.0761 8.80488 5.10797 8.87247 5.12023C8.94128 5.13271 9.01226 5.12428 9.07623 5.09605C9.12755 5.0734 9.18055 5.05517 9.23464 5.04148C9.26192 5.01927 9.28583 4.99296 9.30546 4.96332C9.34291 4.90677 9.36311 4.84057 9.36364 4.77277V4.63636C9.36364 3.93716 9.6414 3.26659 10.1358 2.77217C10.6302 2.27776 11.3008 2 12 2C12.6992 2 13.3698 2.27776 13.8642 2.77217C14.3586 3.26659 14.6364 3.93716 14.6364 4.63636V4.70744C14.6369 4.7752 14.6571 4.84135 14.6945 4.89787C14.7322 4.95478 14.7857 4.99943 14.8485 5.02631L14.8583 5.03054C14.9223 5.05878 14.9933 5.06725 15.0621 5.05477C15.1297 5.04252 15.1921 5.01065 15.2417 4.96319L15.2852 4.91965C15.2854 4.91952 15.2851 4.91978 15.2852 4.91965C15.53 4.67471 15.821 4.48 16.1409 4.3474C16.4609 4.21473 16.804 4.14644 17.1505 4.14644C17.4969 4.14644 17.84 4.21473 18.16 4.3474C18.4797 4.47993 18.7702 4.67412 19.0149 4.91886C19.26 5.16371 19.4545 5.45447 19.5871 5.77452C19.7198 6.09457 19.7881 6.43763 19.7881 6.78409C19.7881 7.13055 19.7198 7.47361 19.5871 7.79366C19.4545 8.11354 19.2602 8.40416 19.0153 8.64892C19.0152 8.64905 19.0154 8.64879 19.0153 8.64892L18.9714 8.69283C18.9239 8.74241 18.892 8.80488 18.8798 8.87247C18.8673 8.94129 18.8757 9.01226 18.904 9.07623C18.9266 9.12755 18.9448 9.18054 18.9585 9.23463C18.9807 9.26191 19.007 9.28583 19.0367 9.30546C19.0932 9.34291 19.1594 9.36311 19.2272 9.36364H19.3636C20.0628 9.36364 20.7334 9.6414 21.2278 10.1358C21.7222 10.6302 22 11.3008 22 12C22 12.6992 21.7222 13.3698 21.2278 13.8642C20.7334 14.3586 20.0628 14.6364 19.3636 14.6364H19.2926C19.2248 14.6369 19.1586 14.6571 19.1021 14.6945C19.0452 14.7322 19.0006 14.7857 18.9737 14.8485L18.0545 14.4545Z" fill="#7A7F8F"/>
</svg>
