<svg width="24" height="24" viewBox="0 0 24 24" fill="none" xmlns="http://www.w3.org/2000/svg">
<path fill-rule="evenodd" clip-rule="evenodd" d="M10 9C9.44772 9 9 9.44772 9 10V19C9 19.5523 9.44772 20 10 20H19C19.5523 20 20 19.5523 20 19V10C20 9.44772 19.5523 9 19 9H10ZM7 10C7 8.34315 8.34315 7 10 7H19C20.6569 7 22 8.34315 22 10V19C22 20.6569 20.6569 22 19 22H10C8.34315 22 7 20.6569 7 19V10Z" fill="#7A7F8F"/>
<path fill-rule="evenodd" clip-rule="evenodd" d="M5 4C4.44772 4 4 4.44772 4 5V14C4 14.5523 4.44772 15 5 15H6V17H5C3.34315 17 2 15.6569 2 14V5C2 3.34315 3.34315 2 5 2H14C15.6569 2 17 3.34315 17 5V6H15V5C15 4.44772 14.5523 4 14 4H5Z" fill="#7A7F8F"/>
</svg>
