<svg width="24" height="24" viewBox="0 0 24 24" fill="none" xmlns="http://www.w3.org/2000/svg">
<path fill-rule="evenodd" clip-rule="evenodd" d="M3.99996 12C3.99996 16.4183 7.58168 20 12 20C15.6031 20 18.6499 17.618 19.6515 14.3427C19.1267 14.6901 18.5183 15.0447 17.8513 15.3479C16.7303 15.8574 15.3917 16.2454 13.9804 16.1624C12.5415 16.0777 11.0918 15.506 9.7929 14.2071C8.49405 12.9083 7.92229 11.4585 7.83765 10.0197C7.75462 8.60837 8.14254 7.26975 8.6521 6.1487C8.95528 5.4817 9.30993 4.87324 9.65725 4.34848C6.38202 5.35005 3.99996 8.39684 3.99996 12ZM12.7071 3.70711L12.7069 3.70725L12.6985 3.71585C12.6902 3.72436 12.6766 3.73839 12.6582 3.75769C12.6215 3.79632 12.5657 3.85599 12.4949 3.93487C12.353 4.09284 12.1517 4.32664 11.9221 4.62175C11.4598 5.21612 10.8989 6.03889 10.4728 6.9763C10.0449 7.91775 9.77658 8.92288 9.83419 9.90222C9.89018 10.854 10.2559 11.8417 11.2071 12.7929C12.1583 13.7441 13.146 14.1098 14.0978 14.1658C15.0771 14.2234 16.0823 13.9551 17.0237 13.5271C17.9611 13.101 18.7839 12.5401 19.3782 12.0778C19.6733 11.8483 19.9071 11.647 20.0651 11.5051C20.144 11.4343 20.2036 11.3785 20.2423 11.3417C20.2616 11.3234 20.2756 11.3098 20.2841 11.3015L20.2927 11.293L20.2929 11.2929C20.293 11.2927 20.2932 11.2926 20.2933 11.2924C20.5793 11.0068 21.0092 10.9214 21.3826 11.0761C21.7563 11.2309 22 11.5955 22 12C22 17.5228 17.5228 22 12 22C6.47711 22 1.99996 17.5228 1.99996 12C1.99996 6.47715 6.47711 2 12 2C12.4044 2 12.7691 2.24364 12.9238 2.61731C13.0785 2.99065 12.9932 3.42032 12.7078 3.70633C12.7078 3.70633 12.7078 3.70633 12.7078 3.70634C12.7077 3.70644 12.7076 3.70655 12.7075 3.70665C12.7074 3.7068 12.7072 3.70695 12.7071 3.70711Z" fill="#7A7F8F"/>
</svg>
