<svg width="24" height="24" viewBox="0 0 24 24" fill="none" xmlns="http://www.w3.org/2000/svg">
<path fill-rule="evenodd" clip-rule="evenodd" d="M12 3C12.5523 3 13 3.44772 13 4V11.5739L15.2905 9.26757C15.6796 8.87569 16.3128 8.8735 16.7047 9.26267C17.0965 9.65184 17.0987 10.285 16.7095 10.6769L12.7095 14.7047C12.5218 14.8937 12.2664 15 12 15C11.7336 15 11.4782 14.8937 11.2905 14.7047L7.29045 10.6769C6.90128 10.285 6.90347 9.65184 7.29534 9.26267C7.68722 8.8735 8.32038 8.87569 8.70955 9.26757L11 11.5739V4C11 3.44772 11.4477 3 12 3Z" fill="#7A7F8F"/>
<path fill-rule="evenodd" clip-rule="evenodd" d="M3 13.0972H6C6.55228 13.0972 7 13.5449 7 14.0972C7 14.6495 6.55228 15.0972 6 15.0972H4V19.1389H20V15.0972H18.25C17.6977 15.0972 17.25 14.6495 17.25 14.0972C17.25 13.5449 17.6977 13.0972 18.25 13.0972H20.9997C21.552 13.0972 22 13.5449 22 14.0972V20.1389C22 20.6912 21.5523 21.1389 21 21.1389H3C2.44772 21.1389 2 20.6912 2 20.1389V14.0972C2 13.5449 2.44772 13.0972 3 13.0972Z" fill="#7A7F8F"/>
</svg>
