<svg width="26" height="26" viewBox="0 0 26 26" fill="none" xmlns="http://www.w3.org/2000/svg">
<path fill-rule="evenodd" clip-rule="evenodd" d="M3.99992 21C3.99992 21.5523 4.44764 22 4.99992 22H14.9999C15.5522 22 15.9999 21.5523 15.9999 21V14C15.9999 13.4477 16.4476 13 16.9999 13C17.5522 13 17.9999 13.4477 17.9999 14V21C17.9999 22.6569 16.6568 24 14.9999 24H4.99992C3.34307 24 1.99992 22.6569 1.99992 21L1.99992 11C1.99992 9.34315 3.34307 8 4.99992 8H12C12.5523 8 13 8.44772 13 9C13 9.55229 12.5523 10 12 10H4.99992C4.44764 10 3.99992 10.4477 3.99992 11L3.99992 21Z" fill="#7A7F8F"/>
<path fill-rule="evenodd" clip-rule="evenodd" d="M21 4.00002C21.5523 4.00002 22 4.44774 22 5.00002L22 10.6765C22 11.2288 21.5523 11.6765 21 11.6765C20.4477 11.6765 20 11.2288 20 10.6765L20 7.41423L11.2071 16.2071C10.8166 16.5977 10.1834 16.5977 9.79288 16.2071C9.40235 15.8166 9.40235 15.1834 9.79288 14.7929L18.5858 6.00002L15.3235 6.00002C14.7712 6.00002 14.3235 5.5523 14.3235 5.00002C14.3235 4.44773 14.7712 4.00002 15.3235 4.00002L21 4.00002Z" fill="#7A7F8F"/>
</svg>
