<svg width="24" height="24" viewBox="0 0 24 24" fill="none" xmlns="http://www.w3.org/2000/svg">
<path fill-rule="evenodd" clip-rule="evenodd" d="M19.9777 12C19.9417 11.9143 19.8518 11.7272 19.6303 11.44C19.2717 10.9749 18.7001 10.4245 17.9344 9.89559C16.3989 8.83493 14.288 8 12 8C9.71196 8 7.60115 8.83493 6.06561 9.89559C5.29985 10.4245 4.72835 10.9749 4.36967 11.44C4.14824 11.7272 4.05828 11.9143 4.0223 12C4.05828 12.0857 4.14824 12.2728 4.36967 12.56C4.72835 13.0251 5.29985 13.5755 6.06561 14.1044C7.60115 15.1651 9.71196 16 12 16C14.288 16 16.3989 15.1651 17.9344 14.1044C18.7001 13.5755 19.2717 13.0251 19.6303 12.56C19.8518 12.2728 19.9417 12.0857 19.9777 12ZM12 18C17.5228 18 22 14 22 12C22 10 17.5228 6 12 6C6.47715 6 2 10 2 12C2 14 6.47715 18 12 18Z" fill="#7A7F8F"/>
<path d="M14 12C14 13.1046 13.1046 14 12 14C10.8954 14 10 13.1046 10 12C10 10.8954 10.8954 10 12 10C13.1046 10 14 10.8954 14 12Z" fill="#7A7F8F"/>
</svg>
