<svg width="24" height="24" viewBox="0 0 24 24" fill="none" xmlns="http://www.w3.org/2000/svg">
<path d="M14 12C14 13.1046 13.1046 14 12 14C10.8954 14 10 13.1046 10 12C10 10.8954 10.8954 10 12 10C13.1046 10 14 10.8954 14 12Z" fill="#7A7F8F"/>
<path fill-rule="evenodd" clip-rule="evenodd" d="M3.29289 19.2929C2.90237 18.9024 2.90237 18.2692 3.29289 17.8787L16.8787 4.29292C17.2692 3.9024 17.9024 3.9024 18.2929 4.29292C18.6834 4.68345 18.6834 5.31661 18.2929 5.70714L4.70711 19.2929C4.31658 19.6834 3.68342 19.6834 3.29289 19.2929Z" fill="#7A7F8F"/>
<path fill-rule="evenodd" clip-rule="evenodd" d="M4.4757 11.1556C4.06801 11.6451 4 11.9381 4 12C4 12.0205 4.01269 12.1398 4.13919 12.3662C4.26026 12.5829 4.45695 12.8459 4.73881 13.1357C5.30216 13.7151 6.14207 14.3365 7.18812 14.8535C7.68322 15.0983 7.88617 15.698 7.64143 16.1931C7.39669 16.6882 6.79693 16.8912 6.30184 16.6465C5.07963 16.0423 4.04704 15.2932 3.30497 14.53C2.93413 14.1487 2.61987 13.7474 2.39317 13.3416C2.1719 12.9455 2 12.4839 2 12C2 11.2286 2.43567 10.4799 2.93883 9.87569C3.47235 9.23505 4.2144 8.59721 5.09724 8.03257C6.86244 6.90359 9.29677 6 12 6C12.7461 6 13.5777 6.14257 14.1873 6.27171C14.4997 6.3379 14.7693 6.404 14.9616 6.45373C15.058 6.47864 15.1354 6.49959 15.1897 6.51456L15.2533 6.53234L15.2711 6.53743L15.2764 6.53895L15.2781 6.53944C15.2782 6.53947 15.2791 6.53975 15 7.5L15.2791 6.53975C15.8095 6.69391 16.1144 7.24881 15.9602 7.77914C15.8061 8.30934 15.2515 8.61427 14.7213 8.46036C14.7212 8.46034 14.7213 8.46039 14.7213 8.46036L14.7189 8.4597L14.7075 8.45643L14.6575 8.44247C14.6127 8.4301 14.5458 8.41198 14.4609 8.39002C14.2907 8.346 14.0503 8.2871 13.7727 8.22829C13.2023 8.10743 12.5339 8 12 8C9.73267 8 7.667 8.76308 6.17484 9.71743C5.429 10.1945 4.85303 10.7025 4.4757 11.1556ZM17.3096 8.22891C17.5972 7.75742 18.2126 7.60836 18.6841 7.89598C19.629 8.47238 20.4236 9.13281 20.9948 9.79727C21.532 10.4222 22 11.2005 22 12C22 12.7714 21.5643 13.5201 21.0612 14.1243C20.5277 14.765 19.7856 15.4028 18.9028 15.9674C17.1376 17.0964 14.7032 18 12 18C11.2508 18 10.5228 17.9305 9.82508 17.8066C9.28131 17.71 8.91881 17.1908 9.01542 16.6471C9.11202 16.1033 9.63115 15.7408 10.1749 15.8374C10.7636 15.942 11.3744 16 12 16C14.2673 16 16.333 15.2369 17.8252 14.2826C18.571 13.8055 19.147 13.2975 19.5243 12.8444C19.932 12.3549 20 12.0619 20 12C20 11.9324 19.9227 11.6182 19.4782 11.101C19.0676 10.6234 18.4438 10.0922 17.6426 9.60337C17.1711 9.31576 17.022 8.70039 17.3096 8.22891Z" fill="#7A7F8F"/>
</svg>
