<svg width="24" height="24" viewBox="0 0 24 24" fill="none" xmlns="http://www.w3.org/2000/svg">
<path fill-rule="evenodd" clip-rule="evenodd" d="M12 4C7.58172 4 4 7.58172 4 12C4 16.4183 7.58172 20 12 20C16.4183 20 20 16.4183 20 12C20 11.4477 20.4477 11 21 11C21.5523 11 22 11.4477 22 12C22 17.5228 17.5228 22 12 22C6.47715 22 2 17.5228 2 12C2 6.47715 6.47715 2 12 2C13.167 2 14.2894 2.20032 15.3332 2.56928C15.854 2.75332 16.1269 3.32465 15.9428 3.84536C15.7588 4.36608 15.1875 4.639 14.6668 4.45496C13.834 4.16061 12.9368 4 12 4Z" fill="#7A7F8F"/>
<path fill-rule="evenodd" clip-rule="evenodd" d="M10.6944 13.0924C10.4305 12.7335 10.4358 12.2434 10.7074 11.8903L16.8488 3.90607C17.1707 3.48761 17.7624 3.39145 18.2003 3.68646C19.9277 4.85044 21.3797 6.62757 21.9636 8.73271C22.1027 9.23415 21.834 9.75845 21.3457 9.93834L11.8457 13.4383C11.4277 13.5923 10.9583 13.4513 10.6944 13.0924ZM19.723 8.40477C19.2979 7.46281 18.6335 6.60797 17.8277 5.91384L14.4044 10.3642L19.723 8.40477Z" fill="#7A7F8F"/>
</svg>
