<svg width="24" height="24" viewBox="0 0 24 24" fill="none" xmlns="http://www.w3.org/2000/svg">
<path fill-rule="evenodd" clip-rule="evenodd" d="M5.61483 5.14383C5.9457 4.44533 6.64941 4 7.42231 4H16.5777C17.3506 4 18.0543 4.44534 18.3852 5.14383L16.5777 6H7.42231L4.5802 12H8.25408C8.80326 12 9.32828 12.2258 9.70598 12.6245L11.0091 14H12.9909L14.294 12.6245C14.6717 12.2258 15.1967 12 15.7459 12H19.4198L16.5777 6L18.3852 5.14383L22 12.7751V18C22 19.1046 21.1046 20 20 20H4C2.89543 20 2 19.1046 2 18V12.7751L5.61483 5.14383ZM20 14H15.7459L14.4428 15.3755C14.0651 15.7742 13.5401 16 12.9909 16H11.0091C10.4599 16 9.93487 15.7742 9.55717 15.3755L8.25408 14H4V18H20V14Z" fill="#7A7F8F"/>
</svg>
