<svg width="24" height="24" viewBox="0 0 24 24" fill="none" xmlns="http://www.w3.org/2000/svg">
<path fill-rule="evenodd" clip-rule="evenodd" d="M12 2C12.5523 2 13 2.44772 13 3V6C13 6.55228 12.5523 7 12 7C11.4477 7 11 6.55228 11 6V3C11 2.44772 11.4477 2 12 2ZM5.26195 5.32526C5.63459 4.91764 6.26712 4.8893 6.67474 5.26195L8.67474 7.09037C9.08235 7.46302 9.1107 8.09555 8.73805 8.50317C8.3654 8.91078 7.73287 8.93913 7.32526 8.56648L5.32526 6.73805C4.91764 6.36541 4.8893 5.73288 5.26195 5.32526ZM17.2929 5.29289C17.6834 4.90237 18.3166 4.90237 18.7071 5.29289C19.0976 5.68342 19.0976 6.31658 18.7071 6.70711L16.8787 8.53553C16.4882 8.92606 15.855 8.92606 15.4645 8.53553C15.0739 8.14501 15.0739 7.51184 15.4645 7.12132L17.2929 5.29289ZM12 10C10.8954 10 10 10.8954 10 12C10 13.1046 10.8954 14 12 14C13.1046 14 14 13.1046 14 12C14 10.8954 13.1046 10 12 10ZM8 12C8 9.79086 9.79086 8 12 8C14.2091 8 16 9.79086 16 12C16 14.2091 14.2091 16 12 16C9.79086 16 8 14.2091 8 12ZM2 12C2 11.4477 2.44772 11 3 11H6C6.55228 11 7 11.4477 7 12C7 12.5523 6.55228 13 6 13H3C2.44772 13 2 12.5523 2 12ZM21 13H18C17.4477 13 17 12.5523 17 12C17 11.4477 17.4477 11 18 11H21C21.5523 11 22 11.4477 22 12C22 12.5523 21.5523 13 21 13ZM8.73805 15.4968C9.1107 15.9044 9.08235 16.537 8.67473 16.9096L6.67474 18.7381C6.26712 19.1107 5.63459 19.0824 5.26194 18.6747C4.88929 18.2671 4.91764 17.6346 5.32526 17.2619L7.32525 15.4335C7.73287 15.0609 8.3654 15.0892 8.73805 15.4968ZM15.4645 15.4645C15.855 15.0739 16.4882 15.0739 16.8787 15.4645L18.7071 17.2929C19.0976 17.6834 19.0976 18.3166 18.7071 18.7071C18.3166 19.0976 17.6834 19.0976 17.2929 18.7071L15.4645 16.8787C15.0739 16.4882 15.0739 15.855 15.4645 15.4645ZM12 17C12.5523 17 13 17.4477 13 18V21C13 21.5523 12.5523 22 12 22C11.4477 22 11 21.5523 11 21V18C11 17.4477 11.4477 17 12 17Z" fill="#7A7F8F"/>
</svg>
