<svg width="24" height="24" viewBox="0 0 24 24" fill="none" xmlns="http://www.w3.org/2000/svg">
<path fill-rule="evenodd" clip-rule="evenodd" d="M3.83843 19.8776C2.38724 18.4264 2.38724 16.0736 3.83843 14.6224L8.99141 9.4694C10.5229 7.93791 12.9955 7.90456 14.5677 9.39419C14.9686 9.77404 14.9857 10.407 14.6058 10.8079C14.226 11.2088 13.5931 11.2259 13.1921 10.846C12.4065 10.1017 11.1709 10.1183 10.4056 10.8836L5.25264 16.0366C4.5825 16.7067 4.5825 17.7933 5.25264 18.4634C5.93111 19.1419 7.03407 19.1322 7.70054 18.4419L9.28063 16.8054C9.66424 16.4081 10.2973 16.397 10.6946 16.7806C11.0919 17.1642 11.103 17.7973 10.7194 18.1946L9.13934 19.8311C7.69611 21.3259 5.30765 21.3468 3.83843 19.8776Z" fill="#7A7F8F"/>
<path fill-rule="evenodd" clip-rule="evenodd" d="M19.8446 3.99288C21.3015 5.44979 21.3015 7.81192 19.8446 9.26884L14.7019 14.4115C13.1705 15.9429 10.6979 15.9763 9.12566 14.4867C8.72475 14.1068 8.70767 13.4739 9.08752 13.073C9.46737 12.6721 10.1003 12.655 10.5012 13.0348C11.2869 13.7792 12.5224 13.7625 13.2877 12.9972L18.4303 7.85463C19.1062 7.17876 19.1062 6.08296 18.4303 5.40709C17.7512 4.72795 16.6489 4.73172 15.9745 5.41548L14.2119 7.20229C13.8241 7.59547 13.1909 7.5998 12.7977 7.21195C12.4046 6.82411 12.4002 6.19096 12.7881 5.79777L14.5506 4.01097C16.0045 2.53703 18.3806 2.52891 19.8446 3.99288Z" fill="#7A7F8F"/>
</svg>
