<svg width="24" height="24" viewBox="0 0 24 24" fill="none" xmlns="http://www.w3.org/2000/svg">
<path fill-rule="evenodd" clip-rule="evenodd" d="M2 4C2 2.89543 2.89543 2 4 2H6C7.10457 2 8 2.89543 8 4V6C8 7.10457 7.10457 8 6 8H4C2.89543 8 2 7.10457 2 6V4ZM6 4H4V6H6V4ZM9 4C9 2.89543 9.89543 2 11 2H20C21.1046 2 22 2.89543 22 4V6C22 7.10457 21.1046 8 20 8H11C9.89543 8 9 7.10457 9 6V4ZM20 4H11V6H20V4ZM2 11C2 9.89543 2.89543 9 4 9H6C7.10457 9 8 9.89543 8 11V13C8 14.1046 7.10457 15 6 15H4C2.89543 15 2 14.1046 2 13V11ZM6 11H4V13H6V11ZM9 11C9 9.89543 9.89543 9 11 9H20C21.1046 9 22 9.89543 22 11V13C22 14.1046 21.1046 15 20 15H11C9.89543 15 9 14.1046 9 13V11ZM20 11H11V13H20V11ZM2 18C2 16.8954 2.89543 16 4 16H6C7.10457 16 8 16.8954 8 18V20C8 21.1046 7.10457 22 6 22H4C2.89543 22 2 21.1046 2 20V18ZM6 18H4V20H6V18ZM9 18C9 16.8954 9.89543 16 11 16H20C21.1046 16 22 16.8954 22 18V20C22 21.1046 21.1046 22 20 22H11C9.89543 22 9 21.1046 9 20V18ZM20 18H11V20H20V18Z" fill="#7A7F8F"/>
</svg>
