<svg width="24" height="24" viewBox="0 0 24 24" fill="none" xmlns="http://www.w3.org/2000/svg">
<path fill-rule="evenodd" clip-rule="evenodd" d="M20 12H4V20H20V12ZM4 10C2.89543 10 2 10.8954 2 12V20C2 21.1046 2.89543 22 4 22H20C21.1046 22 22 21.1046 22 20V12C22 10.8954 21.1046 10 20 10H4Z" fill="#7A7F8F"/>
<path fill-rule="evenodd" clip-rule="evenodd" d="M6 8C6 4.68629 8.68629 2 12 2C15.3137 2 18 4.68629 18 8V11H16V8C16 5.79086 14.2091 4 12 4C9.79086 4 8 5.79086 8 8V11H6V8Z" fill="#7A7F8F"/>
<path fill-rule="evenodd" clip-rule="evenodd" d="M12 17C12.5523 17 13 16.5523 13 16C13 15.4477 12.5523 15 12 15C11.4477 15 11 15.4477 11 16C11 16.5523 11.4477 17 12 17ZM12 18C13.1046 18 14 17.1046 14 16C14 14.8954 13.1046 14 12 14C10.8954 14 10 14.8954 10 16C10 17.1046 10.8954 18 12 18Z" fill="#7A7F8F"/>
</svg>
