<svg width="24" height="24" viewBox="0 0 24 24" fill="none" xmlns="http://www.w3.org/2000/svg">
<path fill-rule="evenodd" clip-rule="evenodd" d="M11.4774 2.01345C11.6505 2.00452 11.8248 2 12 2C12.1752 2 12.3495 2.00452 12.5226 2.01345C13.0742 2.04189 13.4983 2.51207 13.4698 3.06362C13.4414 3.61518 12.9712 4.03924 12.4196 4.01079C12.2808 4.00363 12.1408 4 12 4C11.8592 4 11.7192 4.00363 11.5804 4.01079C11.0288 4.03924 10.5586 3.61518 10.5302 3.06362C10.5017 2.51207 10.9258 2.04189 11.4774 2.01345ZM15.1962 3.52453C15.4473 3.03265 16.0496 2.83748 16.5415 3.08861C16.8535 3.24787 17.1559 3.42299 17.4477 3.61287C17.9106 3.9141 18.0417 4.53355 17.7404 4.99646C17.4392 5.45936 16.8198 5.59043 16.3568 5.28921C16.1233 5.13725 15.8815 4.9972 15.6321 4.86988C15.1402 4.61875 14.945 4.01642 15.1962 3.52453ZM8.80383 3.52453C9.05496 4.01642 8.85979 4.61875 8.36791 4.86988C8.11854 4.9972 7.87667 5.13725 7.64315 5.28921C7.18025 5.59043 6.5608 5.45936 6.25957 4.99646C5.95835 4.53355 6.08942 3.9141 6.55232 3.61288C6.84413 3.42299 7.14654 3.24787 7.45848 3.08861C7.95037 2.83748 8.5527 3.03265 8.80383 3.52453ZM19.0035 6.25957C19.4664 5.95835 20.0859 6.08942 20.3871 6.55232C20.577 6.84413 20.7521 7.14654 20.9114 7.45848C21.1625 7.95037 20.9674 8.5527 20.4755 8.80383C19.9836 9.05496 19.3812 8.85979 19.1301 8.36791C19.0028 8.11854 18.8628 7.87667 18.7108 7.64315C18.4096 7.18025 18.5406 6.5608 19.0035 6.25957ZM4.99646 6.25957C5.45936 6.5608 5.59043 7.18025 5.28921 7.64316C5.13725 7.87667 4.9972 8.11854 4.86988 8.36791C4.61875 8.85979 4.01642 9.05497 3.52453 8.80383C3.03265 8.5527 2.83748 7.95037 3.08861 7.45848C3.24787 7.14654 3.42299 6.84413 3.61287 6.55232C3.9141 6.08942 4.53355 5.95835 4.99646 6.25957ZM3.06362 10.5302C3.61518 10.5586 4.03924 11.0288 4.01079 11.5804C4.00363 11.7192 4 11.8592 4 12C4 12.1408 4.00363 12.2808 4.01079 12.4196C4.03924 12.9712 3.61518 13.4414 3.06362 13.4698C2.51207 13.4983 2.04189 13.0742 2.01345 12.5226C2.00452 12.3495 2 12.1752 2 12C2 11.8248 2.00452 11.6505 2.01345 11.4774C2.04189 10.9258 2.51207 10.5017 3.06362 10.5302ZM20.9364 10.5302C21.4879 10.5017 21.9581 10.9258 21.9866 11.4774C21.9955 11.6505 22 11.8248 22 12C22 12.1752 21.9955 12.3495 21.9866 12.5226C21.9581 13.0742 21.4879 13.4983 20.9364 13.4698C20.3848 13.4414 19.9608 12.9712 19.9892 12.4196C19.9964 12.2808 20 12.1408 20 12C20 11.8592 19.9964 11.7192 19.9892 11.5804C19.9608 11.0288 20.3848 10.5586 20.9364 10.5302ZM3.52453 15.1962C4.01642 14.945 4.61875 15.1402 4.86988 15.6321C4.9972 15.8815 5.13725 16.1233 5.28921 16.3568C5.59043 16.8198 5.45936 17.4392 4.99646 17.7404C4.53355 18.0417 3.9141 17.9106 3.61288 17.4477C3.42299 17.1559 3.24787 16.8535 3.08861 16.5415C2.83748 16.0496 3.03265 15.4473 3.52453 15.1962ZM20.4755 15.1962C20.9674 15.4473 21.1625 16.0496 20.9114 16.5415C20.7521 16.8535 20.577 17.1559 20.3871 17.4477C20.0859 17.9106 19.4664 18.0417 19.0035 17.7404C18.5406 17.4392 18.4096 16.8198 18.7108 16.3568C18.8628 16.1233 19.0028 15.8815 19.1301 15.6321C19.3812 15.1402 19.9836 14.945 20.4755 15.1962ZM17.7404 19.0035C18.0417 19.4664 17.9106 20.0859 17.4477 20.3871C17.1559 20.577 16.8535 20.7521 16.5415 20.9114C16.0496 21.1625 15.4473 20.9674 15.1962 20.4755C14.945 19.9836 15.1402 19.3812 15.6321 19.1301C15.8815 19.0028 16.1233 18.8628 16.3568 18.7108C16.8198 18.4096 17.4392 18.5406 17.7404 19.0035ZM6.25957 19.0035C6.5608 18.5406 7.18025 18.4096 7.64316 18.7108C7.87667 18.8628 8.11854 19.0028 8.36791 19.1301C8.85979 19.3812 9.05497 19.9836 8.80383 20.4755C8.5527 20.9674 7.95037 21.1625 7.45848 20.9114C7.14654 20.7521 6.84413 20.577 6.55232 20.3871C6.08942 20.0859 5.95835 19.4664 6.25957 19.0035ZM10.5302 20.9364C10.5586 20.3848 11.0288 19.9608 11.5804 19.9892C11.7192 19.9964 11.8592 20 12 20C12.1408 20 12.2808 19.9964 12.4196 19.9892C12.9712 19.9608 13.4414 20.3848 13.4698 20.9364C13.4983 21.4879 13.0742 21.9581 12.5226 21.9866C12.3495 21.9955 12.1752 22 12 22C11.8248 22 11.6505 21.9955 11.4774 21.9866C10.9258 21.9581 10.5017 21.4879 10.5302 20.9364Z" fill="#7A7F8F"/>
</svg>
