<svg width="24" height="24" viewBox="0 0 24 24" fill="none" xmlns="http://www.w3.org/2000/svg">
<path fill-rule="evenodd" clip-rule="evenodd" d="M17.2893 2.29646C17.6751 1.90685 18.3026 1.90044 18.6961 2.2821L21.6961 5.19119C21.8878 5.37707 21.9972 5.63189 21.9999 5.89889C22.0027 6.16588 21.8985 6.42288 21.7107 6.61264L12.7107 15.7035C12.5228 15.8933 12.267 16 12 16H9C8.44772 16 8 15.5523 8 15V12.0909C8 11.8274 8.10398 11.5746 8.28935 11.3874L17.2893 2.29646ZM18.0144 4.40687L10 12.5022V14H11.5828L19.5785 5.9236L18.0144 4.40687Z" fill="#7A7F8F"/>
<path fill-rule="evenodd" clip-rule="evenodd" d="M6 5C5.44772 5 5 5.44772 5 6V18C5 18.5523 5.44772 19 6 19H18C18.5523 19 19 18.5523 19 18V12C19 11.4477 19.4477 11 20 11C20.5523 11 21 11.4477 21 12V18C21 19.6569 19.6569 21 18 21H6C4.34315 21 3 19.6569 3 18V6C3 4.34315 4.34315 3 6 3H12C12.5523 3 13 3.44772 13 4C13 4.55228 12.5523 5 12 5H6Z" fill="#7A7F8F"/>
</svg>
