<svg width="24" height="24" viewBox="0 0 24 24" fill="none" xmlns="http://www.w3.org/2000/svg">
<path fill-rule="evenodd" clip-rule="evenodd" d="M12.2893 3.29646C12.6751 2.90685 13.3026 2.90044 13.6961 3.2821L16.6961 6.19119C16.8878 6.37707 16.9972 6.63189 16.9999 6.89889C17.0027 7.16588 16.8985 7.42288 16.7107 7.61264L7.71065 16.7035C7.52283 16.8933 7.26696 17 7 17H4C3.44772 17 3 16.5523 3 16V13.0909C3 12.8274 3.10398 12.5746 3.28935 12.3874L12.2893 3.29646ZM13.0144 5.40687L5 13.5022V15H6.58284L14.5785 6.9236L13.0144 5.40687Z" fill="#7A7F8F"/>
<path fill-rule="evenodd" clip-rule="evenodd" d="M2.5 20C2.5 19.4477 2.94772 19 3.5 19H20C20.5523 19 21 19.4477 21 20C21 20.5523 20.5523 21 20 21H3.5C2.94772 21 2.5 20.5523 2.5 20Z" fill="#7A7F8F"/>
</svg>
