<svg width="24" height="24" viewBox="0 0 24 24" fill="none" xmlns="http://www.w3.org/2000/svg">
<path fill-rule="evenodd" clip-rule="evenodd" d="M12.8398 2.01292C13.1571 1.96144 13.4798 2.06561 13.7071 2.29291L21.7071 10.2929C21.9344 10.5202 22.0386 10.8429 21.9871 11.1602C21.9356 11.4775 21.7347 11.7507 21.4472 11.8944L12.8407 16.1977L11.9615 19.2747C11.8642 19.6154 11.5938 19.8792 11.2508 19.968C10.9079 20.0569 10.5434 19.9577 10.2929 19.7071L8 17.4142L3.70711 21.7071C3.31658 22.0976 2.68342 22.0976 2.29289 21.7071C1.90237 21.3166 1.90237 20.6834 2.29289 20.2929L6.58579 16L4.29289 13.7071C4.04235 13.4566 3.94309 13.0922 4.03197 12.7492C4.12085 12.4062 4.38459 12.1358 4.72528 12.0385L7.8023 11.1593L12.1056 2.5528C12.2493 2.26529 12.5225 2.06441 12.8398 2.01292ZM13.274 4.68818L9.39443 12.4472C9.26907 12.6979 9.04424 12.8845 8.77472 12.9615L6.90884 13.4946L10.5054 17.0912L11.0385 15.2253C11.1155 14.9558 11.3021 14.7309 11.5528 14.6056L19.3118 10.7261L13.274 4.68818Z" fill="#7A7F8F"/>
</svg>
