<svg width="24" height="24" viewBox="0 0 24 24" fill="none" xmlns="http://www.w3.org/2000/svg">
<path fill-rule="evenodd" clip-rule="evenodd" d="M9.40042 5.43497C9.64068 5.93226 9.4323 6.53016 8.93501 6.77041C6.60433 7.8964 5 10.2812 5 13.0388C5 16.8811 8.11478 19.9959 11.9571 19.9959C15.7993 19.9959 18.9141 16.8811 18.9141 13.0388C18.9141 10.2812 17.3098 7.8964 14.9791 6.77041C14.4818 6.53016 14.2734 5.93226 14.5137 5.43497C14.7539 4.93768 15.3518 4.72931 15.8491 4.96956C18.8444 6.41663 20.9141 9.48507 20.9141 13.0388C20.9141 17.9857 16.9039 21.9959 11.9571 21.9959C7.01021 21.9959 3 17.9857 3 13.0388C3 9.48507 5.06969 6.41663 8.06499 4.96956C8.56228 4.72931 9.16017 4.93768 9.40042 5.43497Z" fill="#7A7F8F"/>
<path fill-rule="evenodd" clip-rule="evenodd" d="M12 13C11.4477 13 11 12.5523 11 12L11 3C11 2.44771 11.4477 2 12 2C12.5523 2 13 2.44771 13 3L13 12C13 12.5523 12.5523 13 12 13Z" fill="#7A7F8F"/>
</svg>
