<svg width="24" height="24" viewBox="0 0 24 24" fill="none" xmlns="http://www.w3.org/2000/svg">
<path fill-rule="evenodd" clip-rule="evenodd" d="M20 2C20.5523 2 21 2.44772 21 3V9C21 9.55228 20.5523 10 20 10H14C13.4477 10 13 9.55228 13 9C13 8.44772 13.4477 8 14 8H17.7455C16.4797 6.18526 14.3776 5 12 5C8.13401 5 5 8.13401 5 12C5 15.866 8.13401 19 12 19C14.7662 19 17.1597 17.3955 18.2968 15.0619C18.5388 14.5655 19.1374 14.3591 19.6338 14.6011C20.1303 14.843 20.3366 15.4416 20.0947 15.9381C18.6353 18.9329 15.56 21 12 21C7.02944 21 3 16.9706 3 12C3 7.02944 7.02944 3 12 3C14.8284 3 17.3508 4.30475 19 6.34293V3C19 2.44772 19.4477 2 20 2Z" fill="#7A7F8F"/>
</svg>
