<svg width="24" height="24" viewBox="0 0 24 24" fill="none" xmlns="http://www.w3.org/2000/svg">
<path fill-rule="evenodd" clip-rule="evenodd" d="M20 2C20.5523 2 21 2.44772 21 3V9C21 9.55228 20.5523 10 20 10H14C13.4477 10 13 9.55228 13 9C13 8.44772 13.4477 8 14 8H17.7455C16.4798 6.18537 14.3776 5 12 5C8.43109 5 5.48466 7.67174 5.0542 11.1237C4.98586 11.6718 4.48619 12.0607 3.93815 11.9923C3.39011 11.924 3.00124 11.4243 3.06958 10.8763C3.62331 6.43563 7.40967 3 12 3C14.8284 3 17.3507 4.30467 19 6.34295V3C19 2.44772 19.4477 2 20 2ZM20.0618 12.0077C20.6099 12.076 20.9988 12.5757 20.9304 13.1237C20.3767 17.5644 16.5903 21 12 21C9.17164 21 6.64907 19.6951 5 17.6571V21C5 21.5523 4.55228 22 4 22C3.44772 22 3 21.5523 3 21V15C3 14.4477 3.44772 14 4 14H10C10.5523 14 11 14.4477 11 15C11 15.5523 10.5523 16 10 16H6.25452C7.52055 17.815 9.62248 19 12 19C15.5689 19 18.5153 16.3283 18.9458 12.8763C19.0141 12.3282 19.5138 11.9393 20.0618 12.0077Z" fill="#7A7F8F"/>
</svg>
