<svg width="24" height="24" viewBox="0 0 24 24" fill="none" xmlns="http://www.w3.org/2000/svg">
<path fill-rule="evenodd" clip-rule="evenodd" d="M4 20H20V7.27287L16.7271 4L4 4V20ZM20 22H4C2.89543 22 2 21.1046 2 20V4C2 2.89543 2.89543 2 4 2H16.7271C17.2576 2 17.7663 2.21071 18.1413 2.58579L21.4142 5.85866C21.7893 6.23373 22 6.74244 22 7.27287V20C22 21.1046 21.1046 22 20 22Z" fill="#7A7F8F"/>
<path fill-rule="evenodd" clip-rule="evenodd" d="M14 13H10C9.44772 13 9 13.4477 9 14C9 14.5523 9.44772 15 10 15H14C14.5523 15 15 14.5523 15 14C15 13.4477 14.5523 13 14 13ZM10 11C8.34315 11 7 12.3431 7 14C7 15.6569 8.34315 17 10 17H14C15.6569 17 17 15.6569 17 14C17 12.3431 15.6569 11 14 11H10Z" fill="#7A7F8F"/>
<path fill-rule="evenodd" clip-rule="evenodd" d="M7 3C7 2.44772 7.44772 2 8 2H15C15.5523 2 16 2.44772 16 3C16 3.55228 15.5523 4 15 4H9V5C9 5.55228 9.44772 6 10 6H15C15.5523 6 16 6.44772 16 7C16 7.55228 15.5523 8 15 8H10C8.34315 8 7 6.65685 7 5V3Z" fill="#7A7F8F"/>
</svg>
