<svg width="24" height="24" viewBox="0 0 24 24" fill="none" xmlns="http://www.w3.org/2000/svg">
<path fill-rule="evenodd" clip-rule="evenodd" d="M17.3492 3.24076C17.7685 2.88134 18.3998 2.9299 18.7593 3.34923L21.3307 6.34923C21.6517 6.72372 21.6517 7.27632 21.3307 7.65081L18.7593 10.6508C18.3998 11.0701 17.7685 11.1187 17.3492 10.7593C16.9299 10.3999 16.8813 9.76855 17.2407 9.34923L18.3735 8.02767C14.801 8.34454 12 11.3452 12 15V21C12 21.5523 11.5523 22 11 22C10.4477 22 10 21.5523 10 21V17C10 13.6863 7.31371 11 4 11C3.44772 11 3 10.5523 3 10C3 9.44773 3.44772 9.00002 4 9.00002C6.6355 9.00002 8.97335 10.2744 10.4309 12.2406C11.5386 8.798 14.6634 6.26012 18.4133 6.01883L17.2407 4.65081C16.8813 4.23148 16.9299 3.60018 17.3492 3.24076Z" fill="#7A7F8F"/>
</svg>
