<svg width="24" height="24" viewBox="0 0 24 24" fill="none" xmlns="http://www.w3.org/2000/svg">
<path fill-rule="evenodd" clip-rule="evenodd" d="M5 4C4.44772 4 4 4.44772 4 5V19C4 19.5523 4.44772 20 5 20H19C19.5523 20 20 19.5523 20 19V5C20 4.44772 19.5523 4 19 4H5ZM2 5C2 3.34315 3.34315 2 5 2H19C20.6569 2 22 3.34315 22 5V19C22 20.6569 20.6569 22 19 22H5C3.34315 22 2 20.6569 2 19V5Z" fill="#7A7F8F"/>
<path fill-rule="evenodd" clip-rule="evenodd" d="M15 21L15 3H17V21H15Z" fill="#7A7F8F"/>
<path fill-rule="evenodd" clip-rule="evenodd" d="M11.7071 8.29289C12.0976 8.68342 12.0976 9.31658 11.7071 9.70711L9.41421 12L11.7071 14.2929C12.0976 14.6834 12.0976 15.3166 11.7071 15.7071C11.3166 16.0976 10.6834 16.0976 10.2929 15.7071L7.29289 12.7071C6.90237 12.3166 6.90237 11.6834 7.29289 11.2929L10.2929 8.29289C10.6834 7.90237 11.3166 7.90237 11.7071 8.29289Z" fill="#7A7F8F"/>
</svg>
