<svg width="24" height="24" viewBox="0 0 24 24" fill="none" xmlns="http://www.w3.org/2000/svg">
<path fill-rule="evenodd" clip-rule="evenodd" d="M5 4C4.44772 4 4 4.44772 4 5V19C4 19.5523 4.44772 20 5 20H19C19.5523 20 20 19.5523 20 19V5C20 4.44772 19.5523 4 19 4H5ZM2 5C2 3.34315 3.34315 2 5 2H19C20.6569 2 22 3.34315 22 5V19C22 20.6569 20.6569 22 19 22H5C3.34315 22 2 20.6569 2 19V5Z" fill="#7A7F8F"/>
<path fill-rule="evenodd" clip-rule="evenodd" d="M15 21L15 3H17V21H15Z" fill="#7A7F8F"/>
<path fill-rule="evenodd" clip-rule="evenodd" d="M7.29289 8.29283C7.68342 7.90231 8.31658 7.90231 8.70711 8.29283L11.7071 11.2928C12.0976 11.6834 12.0976 12.3165 11.7071 12.707L8.70711 15.707C8.31658 16.0976 7.68342 16.0976 7.29289 15.707C6.90237 15.3165 6.90237 14.6834 7.29289 14.2928L9.58579 11.9999L7.29289 9.70705C6.90237 9.31652 6.90237 8.68336 7.29289 8.29283Z" fill="#7A7F8F"/>
</svg>
