<svg width="24" height="24" viewBox="0 0 24 24" fill="none" xmlns="http://www.w3.org/2000/svg">
<path fill-rule="evenodd" clip-rule="evenodd" d="M6.09696 5.59178C5.25577 6.46948 5 7.74409 5 9.48649V18.4012L8.70238 14.3026C8.89198 14.0928 9.1616 13.973 9.44444 13.973H12C15.2105 13.973 16.9154 13.4903 17.8235 12.7838C18.65 12.1409 19 11.1572 19 9.48649C19 7.66933 18.8465 6.42751 18.0711 5.57092C17.3051 4.72463 15.6806 4 12 4C8.59692 4 6.93909 4.71311 6.09696 5.59178ZM4.65304 4.20791C6.06091 2.73894 8.40308 2 12 2C15.8194 2 18.1949 2.72742 19.5539 4.22877C20.9035 5.71983 21 7.72125 21 9.48649C21 11.3982 20.6 13.1577 19.0515 14.3624C17.5846 15.5036 15.2895 15.973 12 15.973H9.8887L4.74206 21.6703C4.46473 21.9773 4.02699 22.0819 3.64088 21.9333C3.25476 21.7847 3 21.4137 3 21V9.48649C3 7.6465 3.24423 5.67786 4.65304 4.20791Z" fill="#7A7F8F"/>
</svg>
