<svg width="24" height="24" viewBox="0 0 24 24" fill="none" xmlns="http://www.w3.org/2000/svg">
<path fill-rule="evenodd" clip-rule="evenodd" d="M12 2C12.3948 2 12.7526 2.23227 12.9134 2.59287L15.4411 8.26368L21.6155 8.91535C22.0081 8.95679 22.3396 9.22534 22.4616 9.60081C22.5836 9.97628 22.4733 10.3884 22.18 10.6527L17.5679 14.8091L18.8561 20.8827C18.938 21.2689 18.785 21.6671 18.4656 21.8992C18.1462 22.1312 17.7202 22.1537 17.3782 21.9564L12 18.8544L6.62175 21.9564C6.27977 22.1537 5.85374 22.1312 5.53434 21.8992C5.21495 21.6671 5.06198 21.2689 5.14389 20.8827L6.43211 14.8091L1.81996 10.6527C1.52669 10.3884 1.41636 9.97628 1.53836 9.60081C1.66036 9.22534 1.99184 8.95679 2.38446 8.91535L8.55885 8.26368L11.0866 2.59287C11.2473 2.23227 11.6052 2 12 2ZM12 5.45619L10.1508 9.60475C10.0054 9.93079 9.69734 10.1546 9.34235 10.1921L4.8254 10.6688L8.19947 13.7095C8.46464 13.9485 8.58232 14.3107 8.50825 14.6599L7.56584 19.1031L11.5004 16.8338C11.8096 16.6554 12.1904 16.6554 12.4996 16.8338L16.4341 19.1031L15.4917 14.6599C15.4176 14.3107 15.5353 13.9485 15.8005 13.7095L19.1746 10.6688L14.6576 10.1921C14.3026 10.1546 13.9945 9.93079 13.8492 9.60475L12 5.45619Z" fill="#7A7F8F"/>
</svg>
