<svg width="24" height="24" viewBox="0 0 24 24" fill="none" xmlns="http://www.w3.org/2000/svg">
<path fill-rule="evenodd" clip-rule="evenodd" d="M2 20C2 19.4477 2.44772 19 3 19H21C21.5523 19 22 19.4477 22 20C22 20.5523 21.5523 21 21 21H3C2.44772 21 2 20.5523 2 20Z" fill="#7A7F8F"/>
<path fill-rule="evenodd" clip-rule="evenodd" d="M15 5H9L9 12.1716L12 15.1716L15 12.1716V5ZM9 3C7.89543 3 7 3.89543 7 5V12.1716C7 12.702 7.21071 13.2107 7.58579 13.5858L10.5858 16.5858C11.3668 17.3668 12.6332 17.3668 13.4142 16.5858L16.4142 13.5858C16.7893 13.2107 17 12.702 17 12.1716V5C17 3.89543 16.1046 3 15 3H9Z" fill="#7A7F8F"/>
</svg>
