<svg width="24" height="24" viewBox="0 0 24 24" fill="none" xmlns="http://www.w3.org/2000/svg">
<path fill-rule="evenodd" clip-rule="evenodd" d="M2 20C2 19.4477 2.44772 19 3 19H21C21.5523 19 22 19.4477 22 20C22 20.5523 21.5523 21 21 21H3C2.44772 21 2 20.5523 2 20Z" fill="#7A7F8F"/>
<path fill-rule="evenodd" clip-rule="evenodd" d="M2 16C2 15.4477 2.44772 15 3 15H21C21.5523 15 22 15.4477 22 16C22 16.5523 21.5523 17 21 17H3C2.44772 17 2 16.5523 2 16Z" fill="#7A7F8F"/>
<path fill-rule="evenodd" clip-rule="evenodd" d="M15 5H9V9.31986L12 11.5199L15 9.31986V5ZM9 3C7.89543 3 7 3.89543 7 5V9.31986C7 9.95694 7.30352 10.5559 7.81727 10.9327L10.8173 13.1327C11.5213 13.6489 12.4787 13.6489 13.1827 13.1327L16.1827 10.9327C16.6965 10.5559 17 9.95694 17 9.31986V5C17 3.89543 16.1046 3 15 3H9Z" fill="#7A7F8F"/>
</svg>
