<svg width="24" height="24" viewBox="0 0 24 24" fill="none" xmlns="http://www.w3.org/2000/svg">
<path fill-rule="evenodd" clip-rule="evenodd" d="M2.23663 6.35408C2.59338 5.93247 3.22436 5.87989 3.64596 6.23663L9.61587 11.2881L12.5454 9.64308C12.9062 9.44048 13.3545 9.48103 13.6731 9.74507L19.86 14.8725V12.14C19.86 11.5877 20.3077 11.14 20.86 11.14C21.4123 11.14 21.86 11.5877 21.86 12.14V17C21.86 17.5523 21.4123 18 20.86 18H16C15.4477 18 15 17.5523 15 17C15 16.4477 15.4477 16 16 16H18.0862L12.9258 11.7232L9.98964 13.372C9.62558 13.5764 9.17282 13.5331 8.85408 13.2634L2.35408 7.76341C1.93247 7.40666 1.87989 6.77569 2.23663 6.35408Z" fill="#7A7F8F"/>
</svg>
