<svg width="24" height="24" viewBox="0 0 24 24" fill="none" xmlns="http://www.w3.org/2000/svg">
<path fill-rule="evenodd" clip-rule="evenodd" d="M2.23663 17.6459C2.59338 18.0675 3.22436 18.1201 3.64596 17.7634L9.61587 12.7119L12.5454 14.3569C12.9062 14.5595 13.3545 14.519 13.6731 14.2549L19.86 9.12752V11.86C19.86 12.4123 20.3077 12.86 20.86 12.86C21.4123 12.86 21.86 12.4123 21.86 11.86V6.99998C21.86 6.44769 21.4123 5.99998 20.86 5.99998H16C15.4477 5.99998 15 6.44769 15 6.99998C15 7.55227 15.4477 7.99998 16 7.99998H18.0862L12.9258 12.2768L9.98964 10.628C9.62558 10.4236 9.17282 10.4669 8.85408 10.7366L2.35408 16.2366C1.93247 16.5933 1.87989 17.2243 2.23663 17.6459Z" fill="#7A7F8F"/>
</svg>
