<svg width="24" height="24" viewBox="0 0 24 24" fill="none" xmlns="http://www.w3.org/2000/svg">
<path fill-rule="evenodd" clip-rule="evenodd" d="M4 2C3.44772 2 3 2.44772 3 3V9C3 9.55228 3.44772 10 4 10H10C10.5523 10 11 9.55228 11 9C11 8.44772 10.5523 8 10 8H6.25448C7.5203 6.18526 9.62244 5 12 5C15.866 5 19 8.13401 19 12C19 15.866 15.866 19 12 19C9.23375 19 6.84035 17.3955 5.70318 15.0619C5.46124 14.5655 4.86265 14.3591 4.36617 14.6011C3.8697 14.843 3.66335 15.4416 3.90529 15.9381C5.36471 18.9329 8.44001 21 12 21C16.9706 21 21 16.9706 21 12C21 7.02944 16.9706 3 12 3C9.17163 3 6.64921 4.30475 5 6.34293V3C5 2.44772 4.55228 2 4 2Z" fill="#7A7F8F"/>
</svg>
