<svg width="24" height="24" viewBox="0 0 24 24" fill="none" xmlns="http://www.w3.org/2000/svg">
<path fill-rule="evenodd" clip-rule="evenodd" d="M12 3C12.2664 3 12.5218 3.10631 12.7095 3.29534L16.7095 7.32312C17.0987 7.715 17.0965 8.34816 16.7047 8.73733C16.3128 9.1265 15.6796 9.12431 15.2905 8.73243L13 6.42608V14C13 14.5523 12.5523 15 12 15C11.4477 15 11 14.5523 11 14V6.42608L8.70955 8.73243C8.32038 9.12431 7.68722 9.1265 7.29534 8.73733C6.90347 8.34816 6.90128 7.715 7.29045 7.32312L11.2905 3.29534C11.4782 3.10631 11.7336 3 12 3Z" fill="#7A7F8F"/>
<path fill-rule="evenodd" clip-rule="evenodd" d="M3 13.0972H8C8.55228 13.0972 9 13.5449 9 14.0972C9 14.6495 8.55228 15.0972 8 15.0972H4V19.1389H20V15.0972H16.25C15.6977 15.0972 15.25 14.6495 15.25 14.0972C15.25 13.5449 15.6977 13.0972 16.25 13.0972H20.9993C21.5516 13.0972 22 13.5449 22 14.0972V20.1389C22 20.6912 21.5523 21.1389 21 21.1389H3C2.44772 21.1389 2 20.6912 2 20.1389V14.0972C2 13.5449 2.44772 13.0972 3 13.0972Z" fill="#7A7F8F"/>
</svg>
