<svg width="24" height="24" viewBox="0 0 24 24" fill="none" xmlns="http://www.w3.org/2000/svg">
<path fill-rule="evenodd" clip-rule="evenodd" d="M12 8C13.1046 8 14 7.10457 14 6C14 4.89543 13.1046 4 12 4C10.8954 4 10 4.89543 10 6C10 7.10457 10.8954 8 12 8ZM12 10C14.2091 10 16 8.20914 16 6C16 3.79086 14.2091 2 12 2C9.79086 2 8 3.79086 8 6C8 8.20914 9.79086 10 12 10Z" fill="#7A7F8F"/>
<path fill-rule="evenodd" clip-rule="evenodd" d="M5 16C5 13.7909 6.79086 12 9 12H15C17.2091 12 19 13.7909 19 16V21C19 21.5523 18.5523 22 18 22C17.4477 22 17 21.5523 17 21V16C17 14.8954 16.1046 14 15 14H9C7.89543 14 7 14.8954 7 16V21C7 21.5523 6.55228 22 6 22C5.44772 22 5 21.5523 5 21V16Z" fill="#7A7F8F"/>
</svg>
