<svg width="24" height="24" viewBox="0 0 24 24" fill="none" xmlns="http://www.w3.org/2000/svg">
<path fill-rule="evenodd" clip-rule="evenodd" d="M9.37135 3.70433C10.5111 1.632 13.4889 1.63201 14.6286 3.70433L22.2461 17.5543C23.3458 19.5536 21.8993 22 19.6175 22H4.38254C2.10073 22 0.654244 19.5536 1.75389 17.5543L9.37135 3.70433ZM12.8762 4.66817C12.4963 3.97739 11.5037 3.97739 11.1238 4.66817L3.50632 18.5181C3.13977 19.1845 3.62194 20 4.38254 20H19.6175C20.3781 20 20.8602 19.1845 20.4937 18.5181L12.8762 4.66817Z" fill="#7A7F8F"/>
<path d="M11.0001 17C11.0001 16.4477 11.4478 16 12.0001 16C12.5523 16 13.0001 16.4477 13.0001 17C13.0001 17.5523 12.5523 18 12.0001 18C11.4478 18 11.0001 17.5523 11.0001 17Z" fill="#212121"/>
<path fill-rule="evenodd" clip-rule="evenodd" d="M12.0001 15.0001C11.4478 15.0001 11.0001 14.5523 11.0001 14.0001V9.00003C11.0001 8.44775 11.4478 8.00003 12.0001 8.00003C12.5523 8.00003 13.0001 8.44775 13.0001 9.00003L13.0001 14.0001C13.0001 14.5523 12.5523 15.0001 12.0001 15.0001Z" fill="#7A7F8F"/>
</svg>
