<svg width="24" height="24" viewBox="0 0 24 24" fill="none" xmlns="http://www.w3.org/2000/svg">
<path fill-rule="evenodd" clip-rule="evenodd" d="M10.0171 3.88892C6.70704 3.88892 4.00085 6.61225 4.00085 10C4.00085 13.3878 6.70704 16.1111 10.0171 16.1111C11.6155 16.1111 13.0684 15.4792 14.1483 14.4426C15.3087 13.3288 16.0334 11.7524 16.0334 10C16.0334 6.61225 13.3272 3.88892 10.0171 3.88892ZM2.00085 10C2.00085 5.53308 5.57724 1.88892 10.0171 1.88892C14.457 1.88892 18.0334 5.53308 18.0334 10C18.0334 11.9365 17.3617 13.717 16.2406 15.1128L21.6878 20.2741C22.0887 20.654 22.1058 21.2869 21.7259 21.6878C21.346 22.0887 20.7131 22.1058 20.3122 21.7259L14.804 16.5068C13.4694 17.5133 11.8122 18.1111 10.0171 18.1111C5.57724 18.1111 2.00085 14.467 2.00085 10ZM10 6.00003C10.5523 6.00003 11 6.44774 11 7.00003V9.00003H13C13.5523 9.00003 14 9.44774 14 10C14 10.5523 13.5523 11 13 11H11V13C11 13.5523 10.5523 14 10 14C9.44773 14 9.00002 13.5523 9.00002 13V11H7.00002C6.44773 11 6.00002 10.5523 6.00002 10C6.00002 9.44774 6.44773 9.00003 7.00002 9.00003H9.00002V7.00003C9.00002 6.44774 9.44773 6.00003 10 6.00003Z" fill="#7A7F8F"/>
</svg>
