<svg height="30" width="30" viewBox="0 0 30 30" xmlns="http://www.w3.org/2000/svg">
    <path d="M.8 21.8c.4 0 .8-.3.8-.8v-2c0-.4-.3-.8-.8-.8s-.7.4-.7.8v2c0 .4.3.8.7.8zm1 2.5h-.2V24c0-.4-.3-.8-.8-.8s-.7.4-.7.8v1c0 .4.3.8.8.8h1c.4 0 .8-.3.8-.8s-.5-.7-.9-.7zm0-20.1h-1c-.4 0-.7.4-.7.8v1c0 .4.3.8.8.8s.7-.4.7-.8v-.3h.2c.4 0 .8-.3.8-.8s-.4-.7-.8-.7zm4.7 20.1H4.7c-.4 0-.8.3-.8.8s.3.8.8.8h1.9c.4 0 .8-.3.8-.8s-.5-.8-.9-.8zM.8 16.8c.4 0 .8-.3.8-.8v-2c0-.4-.3-.8-.8-.8s-.7.4-.7.8v2c0 .4.3.8.7.8zM9.4 5.7h1.9c.4 0 .7-.3.7-.7s-.3-.8-.8-.8H9.4c-.5 0-.8.4-.8.8s.3.7.8.7zm-8.6 6c.4 0 .8-.3.8-.8V9c0-.4-.3-.8-.8-.8s-.7.4-.7.8v2c0 .4.3.7.7.7zm13.3-6H16c.4 0 .8-.3.8-.8s-.3-.8-.8-.8h-1.9c-.4 0-.8.3-.8.8s.3.8.8.8zm-2.9 18.6H9.4c-.4 0-.8.3-.8.8s.3.8.8.8h1.9c.4 0 .8-.3.8-.8s-.4-.8-.9-.8zM4.7 5.7h1.9c.4 0 .8-.3.8-.8s-.5-.7-.9-.7H4.7c-.5 0-.8.4-.8.8s.3.7.8.7zm14.1 0h1.9c.4 0 .8-.3.8-.8s-.3-.8-.8-.8h-1.9c-.5.1-.8.5-.8.9s.3.7.8.7zm10.4 7.5c-.4 0-.8.3-.8.8v2c0 .4.3.8.8.8s.8-.3.8-.8v-2c-.1-.4-.4-.8-.8-.8zM15.9 24.3H14c-.4 0-.8.3-.8.8s.3.8.8.8h1.9c.4 0 .8-.3.8-.8s-.3-.8-.8-.8zM29.2 8.2c-.4 0-.8.3-.8.8v2c0 .4.3.8.8.8s.8-.3.8-.8V9c-.1-.4-.4-.8-.8-.8zm0 15.1c-.4 0-.8.3-.8.8v.2h-.2c-.4 0-.8.3-.8.8s.3.8.8.8h1c.4 0 .8-.3.8-.8v-1c-.1-.5-.4-.8-.8-.8zm0-19.1h-1c-.4 0-.8.3-.8.8s.3.8.8.8h.2V6c0 .4.3.8.8.8s.8-.3.8-.8V5c-.1-.4-.4-.8-.8-.8zm0 14.1c-.4 0-.8.3-.8.8v2c0 .4.3.8.8.8s.8-.3.8-.8v-2c-.1-.5-.4-.8-.8-.8zM25.3 4.2h-1.9c-.4 0-.8.3-.8.8s.3.8.8.8h1.9c.4 0 .8-.3.8-.8s-.3-.8-.8-.8zm-2.2 12.7l2.2-1.5c.3-.2.3-.6 0-.8L23 13.1c-.2-.1-.4-.1-.5 0-.2.1-.3.3-.3.4v.8H7.8v-.8c0-.3-.2-.5-.5-.5-.2 0-.3 0-.4.1l-2.2 1.5c-.3.2-.3.6 0 .8L7 16.9c.2.1.4.1.5 0 .2-.1.3-.3.3-.4v-.8h14.4v.8c0 .3.2.5.5.5.2 0 .3 0 .4-.1zm-2.5 7.4h-1.9c-.4 0-.8.3-.8.8s.3.8.8.8h1.9c.4 0 .8-.3.8-.8s-.3-.8-.8-.8zm4.7 0h-1.9c-.4 0-.8.3-.8.8s.3.8.8.8h1.9c.4 0 .8-.3.8-.8s-.3-.8-.8-.8z" fill="#262324"/>
</svg>
